<?xml version="1.0" standalone="no"?>
<!DOCTYPE svg PUBLIC "-//W3C//DTD SVG 20010904//EN"
 "http://www.w3.org/TR/2001/REC-SVG-20010904/DTD/svg10.dtd">
<svg version="1.0" xmlns="http://www.w3.org/2000/svg"
 width="853.000000pt" height="1280.000000pt" viewBox="0 0 853.000000 1280.000000"
 preserveAspectRatio="xMidYMid meet">

<g transform="translate(0.000000,1280.000000) scale(0.100000,-0.100000)"
fill="#000000" stroke="none">
<path d="M1500 10353 c0 -4 -2 -1711 -6 -3793 -5 -3202 -8 -3787 -20 -3801 -8
-8 -14 -23 -14 -31 0 -14 11 -12 73 9 39 14 76 30 82 34 13 13 -16 11 -54 -2
-18 -6 -35 -9 -38 -5 -3 3 -5 1711 -4 3795 2 2688 -1 3791 -8 3796 -6 3 -11 3
-11 -2z"/>
<path d="M2006 10168 c5 -8 2 -9 -9 -5 -10 4 -17 2 -17 -4 0 -6 -8 -8 -17 -5
-22 8 12 -21 134 -115 90 -69 93 -71 117 -56 13 9 33 13 44 10 13 -3 28 2 37
11 9 9 21 14 26 10 6 -3 16 0 24 6 8 7 22 10 30 6 9 -3 15 0 15 9 0 9 6 12 15
9 8 -4 15 -1 15 4 0 6 9 14 20 17 11 4 18 11 14 16 -3 6 2 9 11 7 10 -2 20 2
22 9 3 9 -21 12 -89 13 -121 2 -128 3 -128 12 0 4 -11 8 -24 8 -14 0 -27 4
-30 9 -3 4 -17 6 -31 4 -17 -4 -27 0 -31 11 -4 11 -11 13 -24 6 -9 -5 -20 -7
-23 -4 -2 3 -18 7 -33 9 -16 2 -29 4 -29 5 0 1 -10 3 -23 6 -16 3 -21 0 -16
-8z"/>
<path d="M6498 10141 c4 -10 -2 -13 -26 -9 -17 2 -29 1 -26 -3 6 -10 -39 -17
-146 -23 -47 -3 -86 -5 -88 -5 -2 -1 0 -6 3 -11 4 -6 11 -8 16 -5 5 4 9 -1 9
-10 0 -12 6 -15 21 -10 14 5 19 3 15 -3 -3 -6 -2 -13 4 -17 5 -3 10 -1 10 6 0
8 5 7 17 -2 14 -12 16 -12 9 1 -4 8 0 6 8 -4 9 -11 16 -16 16 -12 0 5 7 3 15
-4 8 -7 23 -9 32 -6 11 4 8 -1 -7 -14 -37 -29 -24 -25 75 24 50 25 82 45 72
45 -16 1 -16 4 3 41 l20 39 -29 -2 c-20 -1 -27 -6 -23 -16z"/>
<path d="M2510 10100 c0 -6 7 -10 15 -10 8 0 15 2 15 4 0 2 -7 6 -15 10 -8 3
-15 1 -15 -4z"/>
<path d="M6170 10095 c7 -8 17 -12 22 -9 6 4 5 10 -3 15 -22 14 -33 10 -19 -6z"/>
<path d="M6294 9964 c-18 -14 -18 -15 4 -4 12 6 22 13 22 15 0 8 -5 6 -26 -11z"/>
<path d="M7077 9974 c-3 -3 -90 -43 -194 -88 -183 -81 -188 -84 -187 -112 0
-16 1 -370 2 -786 2 -567 5 -758 14 -758 8 0 10 168 5 683 -3 375 -3 728 0
784 l6 101 188 84 c104 45 189 86 189 90 0 9 -14 10 -23 2z"/>
<path d="M2200 9966 c0 -3 15 -15 33 -27 l32 -23 -24 27 c-22 24 -41 35 -41
23z"/>
<path d="M1760 9917 c0 -6 19 -24 43 -40 71 -46 86 -62 80 -86 -3 -11 0 -28 8
-37 9 -11 14 -89 19 -292 l7 -277 3 285 c2 157 4 298 4 314 1 25 -10 36 -81
87 -46 32 -83 53 -83 46z"/>
<path d="M2320 9865 c7 -9 33 -28 57 -42 l43 -25 1 -256 c1 -142 4 -243 6
-227 9 78 14 93 33 98 21 5 24 0 35 -65 6 -38 19 -49 28 -25 4 9 7 9 18 -1 12
-11 12 -14 -1 -22 -8 -5 -10 -10 -5 -10 6 0 15 4 21 10 13 13 18 -24 17 -137
0 -52 4 -93 9 -93 5 0 8 12 6 28 -2 19 1 26 11 24 22 -5 183 -106 186 -117 4
-11 12 -375 21 -895 4 -190 8 -347 10 -349 2 -2 4 133 4 300 0 167 3 437 6
599 5 250 9 299 23 319 38 56 50 82 45 95 -3 8 1 27 10 43 l15 28 1 -28 c0
-19 -4 -26 -11 -21 -9 5 -10 -1 -5 -22 4 -16 8 -90 9 -164 0 -74 2 -102 4 -62
2 39 6 72 9 72 13 0 136 -74 140 -84 7 -21 13 -304 13 -732 1 -327 4 -434 14
-447 10 -15 12 -8 12 40 0 32 3 83 6 113 5 42 7 28 8 -62 0 -66 5 -120 11
-123 7 -4 11 143 12 432 1 241 3 447 4 458 1 11 3 72 3 135 1 67 5 109 10 102
6 -10 10 -5 14 17 4 20 13 31 23 31 10 0 14 5 10 16 -3 9 4 24 19 38 23 22 24
24 7 38 -42 36 -92 59 -114 53 -18 -5 -20 -4 -8 4 13 9 12 11 -5 12 -11 1 -24
1 -28 0 -5 -1 -11 7 -14 19 -6 21 -59 53 -74 44 -5 -3 -9 -1 -9 4 0 5 -11 14
-25 20 -17 8 -25 20 -25 37 0 15 4 24 10 20 6 -3 10 -1 10 4 0 6 -6 11 -12 11
-9 0 -8 4 2 10 8 5 11 10 6 10 -5 0 -3 7 4 15 7 8 18 15 24 15 6 0 5 -4 -3 -9
-14 -9 -25 -41 -14 -41 3 0 12 8 20 18 13 16 14 15 10 -5 -6 -26 5 -30 22 -10
8 10 7 17 -1 25 -19 19 6 15 52 -7 33 -16 40 -17 40 -5 0 9 4 13 9 10 5 -4 11
-1 13 6 3 8 22 1 57 -21 38 -25 49 -36 39 -43 -10 -7 -10 -8 2 -6 35 5 79 -24
50 -34 -6 -2 -4 -14 5 -30 7 -16 10 -28 4 -28 -5 0 -9 5 -9 11 0 5 -4 8 -9 4
-5 -3 -11 4 -13 15 -2 15 -7 17 -18 10 -13 -9 -11 -14 13 -31 19 -15 26 -27
22 -40 -4 -11 -2 -19 5 -19 7 0 8 -6 1 -19 -11 -19 -5 -31 13 -31 6 0 4 5 -4
10 -13 8 -12 10 4 10 17 0 17 1 2 25 -9 14 -12 25 -7 25 16 0 25 -22 27 -62 2
-39 -4 -46 -23 -27 -20 20 -31 -67 -18 -137 2 -10 4 -23 4 -27 1 -5 6 -5 11
-2 6 4 7 13 1 23 -6 11 -4 21 5 30 18 16 23 -8 22 -103 -1 -92 13 -449 18
-454 2 -2 4 187 4 420 l0 424 -101 64 c-56 35 -107 64 -115 64 -7 0 -11 4 -9
7 3 4 -146 108 -330 231 -301 201 -335 227 -332 249 l2 25 1795 2 1795 2 3 48
3 48 -1763 -3 c-970 -2 -1782 0 -1806 3 -23 3 -40 10 -37 14 9 16 148 21 523
23 205 0 375 5 378 10 3 4 13 4 22 -1 12 -7 22 -5 35 7 15 13 18 13 15 2 -3
-12 51 -15 380 -17 387 -2 399 -1 374 32 -4 7 -309 11 -872 12 -476 1 -892 5
-924 8 -54 6 -58 5 -46 -10z m1427 -21 c-3 -3 -12 -4 -19 -1 -8 3 -5 6 6 6 11
1 17 -2 13 -5z m-1112 -574 c8 0 15 -4 15 -10 0 -5 7 -10 14 -10 8 0 26 -10
40 -22 13 -13 55 -39 93 -58 37 -19 70 -39 72 -44 2 -4 7 -2 12 5 14 23 19 4
6 -24 -14 -30 -29 -34 -47 -12 -7 8 -18 15 -25 15 -11 0 -119 66 -151 93 -74
61 -86 76 -72 90 11 13 14 12 20 -4 4 -10 14 -19 23 -19z m440 -119 c-6 -5
-25 10 -25 20 0 5 6 4 14 -3 8 -7 12 -15 11 -17z m235 -331 c0 -5 -5 -10 -11
-10 -5 0 -7 5 -4 10 3 6 8 10 11 10 2 0 4 -4 4 -10z"/>
<path d="M2846 9098 c3 -5 10 -6 15 -3 13 9 11 12 -6 12 -8 0 -12 -4 -9 -9z"/>
<path d="M4285 9860 c3 -5 8 -10 11 -10 2 0 4 5 4 10 0 6 -5 10 -11 10 -5 0
-7 -4 -4 -10z"/>
<path d="M4338 9845 c-5 -22 -2 -25 27 -25 80 0 214 14 209 21 -3 5 -1 9 5 9
5 0 11 -6 14 -12 3 -10 7 -10 19 -1 13 12 60 9 81 -4 6 -3 7 -1 4 5 -5 7 9 10
38 10 26 -1 41 -4 35 -8 -6 -4 5 -6 25 -6 19 1 35 5 35 9 0 5 5 5 10 2 6 -3
10 -2 10 3 0 10 -97 21 -106 13 -4 -4 -135 -2 -295 4 l-107 5 -4 -25z"/>
<path d="M5985 9860 c-49 -3 -80 -7 -67 -8 12 -1 22 -6 22 -12 0 -5 12 -10 26
-10 14 0 23 4 19 10 -3 6 3 10 15 10 12 0 19 -4 16 -9 -13 -20 33 -16 60 5 16
13 22 23 14 22 -8 -1 -55 -5 -105 -8z"/>
<path d="M4240 9850 c0 -5 5 -10 10 -10 6 0 10 5 10 10 0 6 -4 10 -10 10 -5 0
-10 -4 -10 -10z"/>
<path d="M4870 9845 c0 -13 8 -15 43 -10 72 11 211 12 225 2 8 -6 12 -6 12 1
0 6 46 11 122 11 67 1 124 4 127 6 2 3 -116 5 -262 5 -234 0 -267 -2 -267 -15z"/>
<path d="M5460 9856 c0 -2 9 -6 20 -9 11 -3 20 -1 20 4 0 5 -9 9 -20 9 -11 0
-20 -2 -20 -4z"/>
<path d="M5518 9853 c7 -3 16 -2 19 1 4 3 -2 6 -13 5 -11 0 -14 -3 -6 -6z"/>
<path d="M5578 9853 c7 -3 16 -2 19 1 4 3 -2 6 -13 5 -11 0 -14 -3 -6 -6z"/>
<path d="M5633 9853 c15 -2 39 -2 55 0 15 2 2 4 -28 4 -30 0 -43 -2 -27 -4z"/>
<path d="M6475 9699 c-139 -63 -228 -99 -250 -100 -15 -1 -16 -2 -4 -6 10 -2
19 -19 23 -41 3 -20 6 -358 6 -749 0 -455 4 -713 10 -713 6 0 8 234 5 653 -2
358 -1 687 2 730 5 78 17 99 29 51 5 -20 11 -25 30 -21 22 4 23 1 27 -72 2
-42 4 -348 5 -680 2 -332 5 -608 8 -613 3 -5 17 8 30 28 20 29 23 39 12 45
-11 7 -11 9 0 9 7 0 11 4 8 9 -3 5 1 14 9 21 11 9 12 17 4 33 -9 16 -8 23 5
32 17 13 22 65 6 65 -5 0 -10 9 -10 20 0 11 4 20 10 20 5 0 9 15 8 33 -1 17 2
41 7 51 6 13 5 17 -3 12 -7 -4 -8 2 -2 24 5 19 5 30 -1 30 -6 0 -7 4 -4 10 6
10 12 115 17 302 2 60 6 108 10 108 4 0 7 15 6 33 0 17 3 50 6 72 3 22 6 61 7
88 1 26 5 47 9 47 3 0 7 17 7 37 1 23 8 42 19 50 10 7 13 13 7 13 -13 0 -7
141 7 150 4 3 6 18 4 33 -1 16 3 30 10 33 7 3 13 10 14 17 1 7 4 40 7 75 5 61
4 62 -19 58 -13 -2 -34 -10 -46 -16 -12 -6 -24 -9 -27 -6 -5 5 25 20 80 39 17
6 24 27 10 27 -5 0 -48 -19 -98 -41z"/>
<path d="M2039 9493 c3 -146 7 -217 11 -183 4 30 7 46 8 34 1 -11 5 -24 9 -28
4 -3 7 -14 8 -24 6 -68 19 -128 29 -134 8 -6 8 -8 -1 -8 -7 0 -10 -14 -7 -37
2 -21 6 -67 9 -103 3 -36 8 -94 11 -130 9 -101 10 -160 2 -160 -4 0 -5 -7 -2
-15 4 -8 7 -48 8 -89 0 -41 4 -78 9 -82 4 -4 7 107 7 247 0 336 16 614 40 704
l18 70 3 -735 3 -735 6 720 c4 396 11 737 15 758 7 34 10 37 44 38 l36 2 -40
6 c-46 8 -67 19 -147 73 -32 21 -63 41 -70 43 -10 4 -12 -43 -9 -232z m61 170
c0 -2 -8 1 -19 6 -10 6 -21 7 -25 4 -3 -3 -6 1 -6 11 0 15 2 15 25 0 14 -9 25
-18 25 -21z"/>
<path d="M2423 9215 c0 -38 2 -53 4 -32 2 20 2 52 0 70 -2 17 -4 1 -4 -38z"/>
<path d="M1902 9065 c0 -47 2 -72 7 -60 4 11 4 47 1 80 l-7 60 -1 -80z"/>
<path d="M2422 9110 c0 -19 2 -27 5 -17 2 9 2 25 0 35 -3 9 -5 1 -5 -18z"/>
<path d="M3095 9100 c4 -6 11 -8 16 -5 14 9 11 15 -7 15 -8 0 -12 -5 -9 -10z"/>
<path d="M2571 9044 c0 -11 3 -14 6 -6 3 7 2 16 -1 19 -3 4 -6 -2 -5 -13z"/>
<path d="M1905 8610 c0 -206 1 -291 2 -187 2 103 2 271 0 375 -1 103 -2 18 -2
-188z"/>
<path d="M2912 8720 c0 -14 2 -19 5 -12 2 6 2 18 0 25 -3 6 -5 1 -5 -13z"/>
<path d="M3272 8670 c-15 -25 -15 -27 3 -27 17 0 26 19 16 35 -4 7 -11 5 -19
-8z"/>
<path d="M2120 8439 c0 -5 5 -7 10 -4 6 3 10 8 10 11 0 2 -4 4 -10 4 -5 0 -10
-5 -10 -11z"/>
<path d="M7055 8205 c-156 -52 -336 -105 -355 -105 -17 0 -20 -3 -12 -13 7 -8
12 -266 15 -790 3 -428 8 -781 11 -784 3 -4 6 340 6 763 0 423 3 779 6 790 6
22 106 61 294 114 41 12 79 26 85 31 12 12 -1 11 -50 -6z"/>
<path d="M1760 8141 c0 -4 27 -20 61 -36 33 -16 65 -37 70 -47 5 -9 10 -335
11 -765 1 -411 3 -728 5 -703 1 25 4 370 5 767 l3 722 -77 35 c-43 19 -78 31
-78 27z"/>
<path d="M6555 8045 c-14 -5 -266 -82 -290 -89 -20 -6 -20 -13 -16 -763 2
-417 7 -731 11 -698 3 33 7 368 9 745 2 570 4 687 16 696 7 5 77 30 154 55 78
24 141 47 141 52 0 7 -8 8 -25 2z"/>
<path d="M2034 8011 c4 -5 35 -23 70 -39 59 -28 65 -33 62 -58 -3 -29 -20 -42
-31 -25 -9 15 -21 14 -39 -4 -15 -16 -15 -47 3 -155 5 -30 6 -60 4 -67 -3 -7
-1 -13 3 -13 5 0 9 -24 8 -52 0 -29 3 -64 7 -78 4 -14 8 44 9 135 2 160 9 222
23 218 20 -7 27 0 27 28 0 17 4 28 10 24 7 -4 10 -257 10 -727 0 -397 2 -719
4 -717 3 3 6 332 7 733 l1 728 -88 39 c-96 43 -98 43 -90 30z"/>
<path d="M6392 7941 l-34 -6 -1 -738 c-2 -610 0 -736 11 -732 8 3 21 5 30 6
14 0 13 2 -3 9 -11 5 -14 9 -7 9 11 1 13 33 10 155 -2 85 0 158 4 161 4 4 4
20 1 36 -3 19 -1 29 6 29 7 0 9 5 4 13 -10 15 -11 217 0 217 12 0 8 28 -5 33
-10 4 -10 6 0 6 7 1 10 6 7 11 -4 6 -1 17 5 25 7 8 9 15 4 15 -5 0 -10 11 -10
25 -1 14 2 25 7 25 5 0 9 -4 9 -10 0 -5 6 -10 13 -10 7 1 3 8 -8 18 -20 17
-22 48 -4 66 12 13 12 29 0 21 -16 -9 -25 17 -10 29 10 8 15 37 16 96 5 219
11 337 16 357 3 13 2 25 -2 27 -8 5 -8 35 0 51 2 6 4 21 4 35 0 27 -12 31 -63
21z"/>
<path d="M2580 7737 c0 -11 42 -31 159 -75 24 -9 42 -20 40 -23 -2 -3 3 -14
11 -24 13 -15 16 -109 20 -659 l6 -641 2 630 c1 347 5 646 8 665 l6 35 -126
52 c-72 29 -126 46 -126 40z"/>
<path d="M2422 7690 c0 -14 2 -19 5 -12 2 6 2 18 0 25 -3 6 -5 1 -5 -13z"/>
<path d="M4801 7614 c24 -81 24 -61 29 -744 l5 -535 5 570 5 570 35 -102 c18
-56 36 -101 38 -99 5 6 -119 389 -129 400 -5 5 1 -22 12 -60z"/>
<path d="M2920 7602 c0 -9 29 -23 113 -56 39 -16 57 -45 57 -96 0 -17 7 -33
17 -39 17 -9 18 -51 23 -578 l5 -568 5 615 c3 338 7 621 10 628 3 8 -13 19
-45 31 -27 10 -79 30 -114 45 -73 30 -71 29 -71 18z"/>
<path d="M2123 7455 c0 -22 2 -30 4 -17 2 12 2 30 0 40 -3 9 -5 -1 -4 -23z"/>
<path d="M2123 7355 c0 -33 2 -45 4 -27 2 18 2 45 0 60 -2 15 -4 0 -4 -33z"/>
<path d="M4936 7210 c4 -14 13 -38 20 -55 11 -24 13 -25 8 -5 -4 14 -13 39
-20 55 -11 24 -13 25 -8 5z"/>
<path d="M5805 7203 c-29 -74 -135 -377 -134 -386 0 -7 16 31 36 83 60 161
112 314 109 317 -2 2 -7 -4 -11 -14z"/>
<path d="M2121 7164 c0 -11 3 -14 6 -6 3 7 2 16 -1 19 -3 4 -6 -2 -5 -13z"/>
<path d="M4991 7050 c0 -8 6 -28 14 -45 17 -39 18 -21 0 25 -7 19 -14 28 -14
20z"/>
<path d="M6003 6912 c-119 -211 -197 -362 -188 -362 4 0 44 71 112 200 22 41
55 101 73 133 18 32 30 60 28 62 -2 3 -14 -12 -25 -33z"/>
<path d="M5036 6910 c3 -14 11 -32 16 -40 6 -10 7 -7 2 10 -3 14 -11 32 -16
40 -6 10 -7 7 -2 -10z"/>
<path d="M2121 6904 c0 -11 3 -14 6 -6 3 7 2 16 -1 19 -3 4 -6 -2 -5 -13z"/>
<path d="M5772 6486 c-17 -31 -26 -56 -21 -56 10 0 63 100 56 107 -3 2 -18
-21 -35 -51z"/>
<path d="M1768 6438 c6 -6 18 -8 28 -6 14 3 12 5 -9 10 -19 3 -25 2 -19 -4z"/>
<path d="M1846 6421 c17 -4 36 -11 42 -15 9 -5 13 -202 14 -764 l2 -757 6 765
c3 421 5 766 4 767 0 2 -23 5 -50 8 -37 4 -42 3 -18 -4z"/>
<path d="M6878 6403 c7 -3 16 -2 19 1 4 3 -2 6 -13 5 -11 0 -14 -3 -6 -6z"/>
<path d="M6808 6393 c7 -3 16 -2 19 1 4 3 -2 6 -13 5 -11 0 -14 -3 -6 -6z"/>
<path d="M2045 6381 c11 -5 47 -15 80 -22 33 -7 63 -18 67 -23 4 -6 9 -335 10
-731 1 -396 4 -628 5 -515 2 113 4 444 5 737 l3 531 -75 12 c-41 6 -84 13 -95
16 l-20 4 20 -9z"/>
<path d="M6710 6384 c-13 -4 -14 -26 -9 -152 4 -81 7 -414 8 -741 1 -327 3
-597 6 -599 3 -3 5 328 5 735 l0 741 28 10 c27 10 27 10 2 10 -14 0 -32 -2
-40 -4z"/>
<path d="M6450 6348 c-30 -5 -86 -12 -125 -16 l-70 -7 -3 -722 c-1 -480 1
-723 8 -723 7 0 10 242 10 714 l0 714 88 12 c150 21 233 38 187 38 -22 0 -65
-4 -95 -10z"/>
<path d="M5949 6326 c-2 -2 -101 -12 -219 -21 -118 -9 -217 -19 -220 -22 -6
-7 184 5 369 22 141 14 193 25 114 25 -22 0 -42 -2 -44 -4z"/>
<path d="M6372 6303 c-20 -4 -22 -9 -18 -51 3 -26 6 -306 7 -622 2 -316 6
-595 9 -620 4 -25 8 -37 8 -28 1 9 8 19 15 22 8 4 9 8 1 11 -8 4 -9 19 -3 48
4 23 5 63 2 90 -5 43 -4 47 13 41 12 -3 14 -3 8 3 -15 11 -14 353 1 353 5 0 3
5 -5 10 -11 7 -12 12 -3 18 8 5 9 19 4 43 -4 19 -4 45 1 58 5 15 4 28 -3 37
-9 11 -9 14 0 14 7 0 9 4 6 10 -3 5 -1 18 5 29 7 14 7 22 -1 26 -6 5 -4 12 8
22 13 10 13 13 3 10 -20 -6 -23 40 -4 47 18 7 18 26 0 26 -12 0 -12 7 -4 38 5
20 15 43 20 50 8 9 4 12 -13 13 -17 1 -19 3 -6 6 20 5 23 52 5 72 -11 11 -10
13 5 8 20 -7 21 -3 7 23 -7 14 -6 23 7 35 16 16 16 18 0 27 -21 11 -23 32 -2
24 12 -4 15 4 15 44 0 38 -4 50 -15 50 -8 0 -15 5 -15 10 0 10 -16 11 -58 3z"/>
<path d="M5480 6280 c0 -5 5 -10 10 -10 6 0 10 5 10 10 0 6 -4 10 -10 10 -5 0
-10 -4 -10 -10z"/>
<path d="M2106 6258 c-19 -27 -21 -69 -4 -86 9 -9 9 -12 0 -12 -7 0 -12 -5
-12 -11 0 -5 5 -7 11 -3 8 5 8 1 0 -14 -15 -28 -14 -32 5 -32 11 0 15 -6 11
-19 -2 -10 -1 -25 4 -32 5 -8 9 36 9 109 0 67 -2 122 -4 122 -3 0 -12 -10 -20
-22z"/>
<path d="M5360 6269 c0 -5 5 -7 10 -4 6 3 10 8 10 11 0 2 -4 4 -10 4 -5 0 -10
-5 -10 -11z"/>
<path d="M5423 6273 c9 -2 23 -2 30 0 6 3 -1 5 -18 5 -16 0 -22 -2 -12 -5z"/>
<path d="M5079 6260 c-63 -4 -143 -11 -177 -15 l-62 -7 0 -300 c0 -197 3 -297
10 -293 6 4 10 111 10 289 0 219 3 283 13 284 6 1 32 5 57 11 25 5 109 13 188
17 78 4 145 11 148 15 6 10 -14 10 -187 -1z"/>
<path d="M5303 6263 c9 -2 23 -2 30 0 6 3 -1 5 -18 5 -16 0 -22 -2 -12 -5z"/>
<path d="M2595 6252 c11 -5 56 -15 101 -22 45 -6 87 -16 95 -21 12 -7 15 -115
19 -646 l5 -638 4 633 c3 347 5 640 5 649 1 15 -13 20 -74 29 -151 22 -175 24
-155 16z"/>
<path d="M2920 6201 c0 -5 21 -12 48 -15 113 -16 114 -17 109 -42 -2 -13 2
-29 9 -35 8 -6 11 -15 8 -20 -3 -5 -1 -9 5 -9 5 0 12 8 14 18 3 9 5 -250 6
-575 1 -391 4 -593 11 -593 7 0 9 209 8 622 l-3 623 -84 12 c-46 6 -94 14
-107 17 -13 4 -24 2 -24 -3z"/>
<path d="M2122 6010 c0 -14 2 -19 5 -12 2 6 2 18 0 25 -3 6 -5 1 -5 -13z"/>
<path d="M7460 5678 c-1 -240 -5 -432 -11 -453 -4 -11 -4 -14 -2 -6 4 12 6 12
14 0 5 -8 9 112 9 294 0 169 -2 307 -5 307 -3 0 -5 -64 -5 -142z"/>
<path d="M4838 5308 c-2 -178 -7 -332 -11 -343 -7 -16 -7 -17 2 -5 8 11 11 12
11 2 0 -7 5 -10 10 -7 6 3 10 15 10 26 0 11 58 108 129 214 155 233 147 220
133 211 -6 -4 -67 -88 -134 -186 l-123 -180 -3 295 c-3 408 -21 388 -24 -27z"/>
<path d="M5003 4833 c9 -2 25 -2 35 0 9 3 1 5 -18 5 -19 0 -27 -2 -17 -5z"/>
<path d="M5081 4835 c11 -10 78 -13 105 -5 23 6 15 8 -40 9 -38 1 -67 -1 -65
-4z"/>
<path d="M5220 4836 c0 -2 7 -6 15 -10 8 -3 15 -1 15 4 0 6 -7 10 -15 10 -8 0
-15 -2 -15 -4z"/>
<path d="M5273 4833 c9 -2 23 -2 30 0 6 3 -1 5 -18 5 -16 0 -22 -2 -12 -5z"/>
<path d="M5321 4835 c8 -8 193 -11 219 -4 14 4 -31 7 -99 8 -68 1 -122 -1
-120 -4z"/>
<path d="M5693 4833 c64 -2 170 -2 235 0 64 1 11 3 -118 3 -129 0 -182 -2
-117 -3z"/>
<path d="M2774 4814 c3 -9 6 -18 6 -20 0 -3 4 -3 9 1 18 11 22 -128 19 -698
-2 -317 0 -577 5 -577 4 0 7 295 7 655 l0 655 -26 0 c-20 0 -25 -4 -20 -16z"/>
<path d="M3073 4823 c14 -4 18 -13 16 -41 -3 -55 0 -72 12 -72 6 0 8 8 4 19
-3 10 -1 29 4 42 6 16 10 -186 10 -585 1 -335 -2 -606 -6 -603 -6 7 -9 71 -13
305 -1 61 -6 112 -11 112 -5 0 -9 -4 -9 -10 0 -5 -9 -14 -21 -21 -18 -9 -20
-8 -15 9 6 17 3 19 -14 15 -11 -3 -20 -10 -20 -15 0 -7 -4 -7 -12 0 -7 5 -25
8 -40 6 -16 -1 -28 2 -29 9 0 7 -4 3 -9 -8 -12 -30 -13 -425 0 -425 5 0 10 5
10 11 0 5 5 7 10 4 6 -3 10 1 10 9 0 8 5 18 12 22 7 5 9 2 6 -7 -5 -12 4 -15
43 -14 27 1 54 -2 60 -5 11 -8 -88 -30 -133 -30 -15 0 -28 -5 -28 -10 0 -6 10
-8 23 -6 12 3 40 8 62 11 22 3 64 10 93 16 l52 10 0 630 0 629 -42 -1 c-24 -1
-35 -3 -25 -6z m13 -1180 c-3 -8 -6 -21 -6 -29 0 -8 -7 -14 -15 -14 -12 0 -14
4 -7 16 5 9 7 25 4 36 -3 14 0 17 12 12 10 -4 15 -13 12 -21z m-76 -25 c0 -16
-3 -19 -11 -11 -6 6 -8 16 -5 22 11 17 16 13 16 -11z"/>
<path d="M4838 4191 l-3 -639 115 -6 c63 -4 205 -14 315 -22 177 -13 415 -30
686 -50 l86 -6 -3 214 c-2 117 -4 253 -4 302 0 83 -1 88 -16 70 -8 -10 -12
-13 -8 -5 4 9 3 12 -4 7 -6 -4 -9 -13 -6 -20 4 -11 -3 -13 -35 -9 -25 4 -41 2
-41 -5 0 -13 -27 -9 -42 6 -17 17 -28 15 -21 -4 5 -14 3 -13 -15 2 -13 11 -22
30 -22 47 0 19 -4 27 -12 24 -7 -2 -12 -11 -10 -21 2 -9 -1 -16 -6 -16 -5 0
-17 34 -27 75 -10 42 -19 74 -22 72 -2 -3 5 -45 16 -93 11 -49 23 -107 26
-129 3 -22 26 -123 51 -224 25 -101 43 -185 41 -188 -6 -5 -34 102 -87 322
-23 93 -50 184 -61 201 -10 17 -19 41 -19 53 0 12 -4 20 -9 17 -5 -4 -7 2 -5
11 3 10 -2 38 -10 63 -8 25 -14 37 -15 28 -1 -10 -6 -18 -12 -18 -7 0 -8 -11
-4 -29 4 -18 2 -32 -6 -37 -9 -5 -10 -2 -6 9 3 8 -1 21 -9 28 -12 10 -17 8
-29 -7 -8 -10 -15 -23 -15 -27 0 -5 -5 -5 -11 -1 -8 5 -8 1 0 -14 6 -11 11
-30 11 -42 0 -21 -7 -21 -72 -4 -12 4 -15 0 -11 -16 4 -15 1 -20 -16 -20 -22
0 -28 19 -11 36 8 8 6 15 -6 25 -10 8 -15 9 -11 2 4 -7 0 -16 -10 -22 -11 -6
-13 -11 -5 -11 24 0 1 -20 -24 -20 -17 0 -27 -8 -34 -24 -6 -16 -16 -24 -32
-23 -13 1 -34 -3 -47 -7 -13 -5 -21 -4 -18 0 3 5 -19 9 -48 9 -30 0 -51 -4
-47 -9 3 -5 -2 -6 -12 -3 -10 4 -21 7 -24 7 -4 0 0 5 8 10 10 7 -3 9 -42 6
-47 -3 -58 -1 -58 11 0 11 -7 14 -25 11 -14 -3 -28 -2 -30 2 -6 10 -55 -11
-55 -23 0 -5 -5 -5 -12 -1 -7 4 -8 3 -4 -4 4 -6 13 -9 20 -6 7 3 19 -2 26 -11
7 -9 8 -15 2 -15 -6 0 -12 4 -14 10 -1 5 -12 7 -23 4 -26 -7 -27 -16 -29 -276
l-1 -208 -32 0 -33 0 1 628 c1 345 4 617 6 605 6 -31 23 -29 23 1 0 15 7 26
18 29 9 3 -2 5 -25 6 l-43 1 -2 -639z m839 27 c-3 -8 -6 -5 -6 6 -1 11 2 17 5
13 3 -3 4 -12 1 -19z m-33 -52 c21 -15 16 -43 -9 -52 -21 -8 -32 3 -17 18 18
18 15 28 -8 28 -22 0 -23 1 -14 24 4 10 9 12 17 5 7 -5 21 -16 31 -23z m-224
-86 c0 -5 -4 -10 -10 -10 -5 0 -10 5 -10 10 0 6 5 10 10 10 6 0 10 -4 10 -10z
m40 -6 c0 -2 -7 -4 -15 -4 -8 0 -15 4 -15 10 0 5 7 7 15 4 8 -4 15 -8 15 -10z
m-414 -15 c3 -6 2 -15 -3 -20 -5 -5 -14 0 -21 11 -10 17 -10 20 2 20 8 0 18
-5 22 -11z"/>
<path d="M4938 4823 c7 -3 16 -2 19 1 4 3 -2 6 -13 5 -11 0 -14 -3 -6 -6z"/>
<path d="M1810 4765 c8 -2 32 -6 53 -10 l37 -6 0 -761 c0 -419 2 -759 5 -757
2 3 5 349 5 770 l1 764 -58 2 c-32 1 -51 0 -43 -2z"/>
<path d="M2162 4763 c18 -3 30 -12 33 -26 3 -12 4 -338 3 -725 -2 -386 0 -702
4 -702 4 0 9 329 10 730 l3 730 -40 -1 c-30 -2 -33 -3 -13 -6z"/>
<path d="M6250 4041 l0 -728 48 -6 c26 -3 63 -8 82 -11 23 -4 18 -1 -15 9 -27
8 -60 15 -72 15 l-23 0 0 719 c0 566 3 720 13 724 6 3 2 6 -10 6 l-23 1 0
-729z"/>
<path d="M6368 4763 c39 -2 105 -2 145 0 39 1 7 3 -73 3 -80 0 -112 -2 -72 -3z"/>
<path d="M6708 4083 c1 -379 3 -726 5 -773 2 -47 5 263 7 688 3 511 2 772 -5
772 -7 0 -9 -234 -7 -687z"/>
<path d="M6365 4740 c-8 -13 -2 -1073 6 -1150 l6 -55 1 68 c1 43 6 66 12 62 6
-3 10 -1 10 4 0 6 -6 11 -12 11 -9 0 -8 4 2 10 13 9 13 11 0 20 -10 7 -12 12
-4 18 6 4 13 17 17 30 4 18 2 21 -7 13 -10 -8 -12 3 -12 52 1 44 5 61 14 60 6
-2 12 2 12 7 0 6 -8 10 -17 10 -13 0 -14 3 -6 11 6 6 9 18 6 27 -4 9 -2 13 4
9 7 -4 8 7 3 33 -4 23 -3 40 2 40 5 0 6 5 3 10 -4 6 -1 17 5 25 8 10 9 19 3
28 -14 18 -10 73 5 69 10 -2 10 3 3 17 -6 10 -7 21 -4 25 3 3 0 6 -7 6 -11 0
-11 3 -2 12 14 14 16 42 2 33 -5 -3 -10 -1 -10 4 0 6 5 11 10 11 7 0 7 7 0 20
-6 11 -7 20 -3 19 20 -3 27 2 13 11 -11 8 -12 12 -3 18 7 4 14 38 17 75 2 38
10 76 17 85 11 14 11 15 -1 5 -23 -21 -35 -15 -15 7 18 20 18 21 -1 35 -18 14
-18 14 6 15 20 0 22 2 10 10 -13 9 -13 10 0 10 13 0 13 2 1 9 -9 6 -12 18 -8
32 3 13 1 29 -5 36 -7 9 -7 17 1 27 8 10 9 21 3 33 -5 10 -7 24 -5 31 6 15
-63 17 -72 2z"/>
<path d="M6022 4690 c0 -19 2 -27 5 -17 2 9 2 25 0 35 -3 9 -5 1 -5 -18z"/>
<path d="M3077 4683 c-4 -3 -6 -22 -6 -42 l1 -36 8 40 c8 42 8 49 -3 38z"/>
<path d="M3096 4647 c3 -10 9 -15 12 -12 3 3 0 11 -7 18 -10 9 -11 8 -5 -6z"/>
<path d="M2107 4624 c3 -9 0 -20 -7 -24 -9 -6 -7 -11 9 -19 20 -11 21 -9 21
24 0 24 -5 35 -15 35 -9 0 -12 -6 -8 -16z"/>
<path d="M5587 4609 c4 -13 8 -18 11 -10 2 7 -1 18 -6 23 -8 8 -9 4 -5 -13z"/>
<path d="M3070 4582 c0 -11 5 -24 10 -27 6 -4 9 2 7 14 -4 29 -17 39 -17 13z"/>
<path d="M6021 4514 c0 -11 3 -14 6 -6 3 7 2 16 -1 19 -3 4 -6 -2 -5 -13z"/>
<path d="M3085 4460 c-3 -5 -1 -18 4 -27 9 -15 10 -14 9 10 -3 30 -4 32 -13
17z"/>
<path d="M6021 4454 c0 -11 3 -14 6 -6 3 7 2 16 -1 19 -3 4 -6 -2 -5 -13z"/>
<path d="M5641 4410 c0 -8 4 -24 9 -35 5 -13 9 -14 9 -5 0 8 -4 24 -9 35 -5
13 -9 14 -9 5z"/>
<path d="M3092 4380 c0 -14 2 -19 5 -12 2 6 2 18 0 25 -3 6 -5 1 -5 -13z"/>
<path d="M6022 4380 c0 -14 2 -19 5 -12 2 6 2 18 0 25 -3 6 -5 1 -5 -13z"/>
<path d="M3070 4303 c0 -13 5 -23 10 -23 13 0 13 11 0 30 -8 12 -10 11 -10 -7z"/>
<path d="M5648 4303 c-22 -5 -24 -20 -3 -20 8 0 16 6 19 14 3 7 4 12 3 12 -1
-1 -10 -3 -19 -6z"/>
<path d="M5768 4303 c6 -2 18 -2 25 0 6 3 1 5 -13 5 -14 0 -19 -2 -12 -5z"/>
<path d="M6023 4235 c0 -22 2 -30 4 -17 2 12 2 30 0 40 -3 9 -5 -1 -4 -23z"/>
<path d="M5805 4240 c3 -5 8 -10 11 -10 2 0 4 5 4 10 0 6 -5 10 -11 10 -5 0
-7 -4 -4 -10z"/>
<path d="M5850 4220 c0 -5 5 -10 10 -10 6 0 10 5 10 10 0 6 -4 10 -10 10 -5 0
-10 -4 -10 -10z"/>
<path d="M5505 4210 c3 -5 8 -10 11 -10 2 0 4 5 4 10 0 6 -5 10 -11 10 -5 0
-7 -4 -4 -10z"/>
<path d="M6022 4160 c0 -19 2 -27 5 -17 2 9 2 25 0 35 -3 9 -5 1 -5 -18z"/>
<path d="M5386 4157 c3 -10 9 -15 12 -12 3 3 0 11 -7 18 -10 9 -11 8 -5 -6z"/>
<path d="M5348 4143 c7 -3 16 -2 19 1 4 3 -2 6 -13 5 -11 0 -14 -3 -6 -6z"/>
<path d="M5770 4146 c0 -8 51 -13 56 -5 3 5 -9 9 -25 9 -17 0 -31 -2 -31 -4z"/>
<path d="M5906 4085 c10 -8 26 -14 34 -14 9 0 4 6 -10 14 -33 19 -49 19 -24 0z"/>
<path d="M5220 4076 c0 -9 5 -16 10 -16 6 0 10 4 10 9 0 6 -4 13 -10 16 -5 3
-10 -1 -10 -9z"/>
<path d="M5345 4080 c-3 -5 1 -10 10 -10 9 0 13 5 10 10 -3 6 -8 10 -10 10 -2
0 -7 -4 -10 -10z"/>
<path d="M2581 3740 l-1 -256 78 10 c67 9 72 11 42 17 -19 3 -29 7 -22 8 30 3
50 36 53 86 1 28 9 68 16 90 9 26 12 57 8 90 -4 28 -7 78 -7 113 0 34 -3 60
-8 57 -4 -3 -10 4 -13 15 -4 17 -13 20 -44 19 -21 -1 -43 -7 -50 -12 -7 -5
-17 -6 -23 -2 -5 3 -10 0 -11 -7 0 -7 -4 -4 -9 7 -5 12 -9 -83 -9 -235z"/>
<path d="M4210 3950 c-8 -5 -47 -8 -86 -6 -39 2 -77 0 -85 -4 -7 -5 -19 -5
-25 1 -8 7 -14 6 -19 -1 -5 -8 -11 -8 -21 1 -11 9 -21 9 -39 1 -13 -6 -34 -8
-47 -5 -24 6 -27 6 -128 -1 -36 -2 -70 1 -77 6 -7 5 -13 5 -17 -1 -4 -6 -19
-6 -42 1 -31 8 -67 7 -229 -6 -72 -6 -65 26 -65 -301 l0 -294 -37 -10 c-37
-10 -237 -54 -393 -86 -181 -38 -395 -75 -431 -75 l-38 0 -4 138 c-3 134 -3
133 -5 -40 l-2 -178 1815 0 1815 0 0 35 c0 19 -2 35 -4 35 -2 0 -62 7 -133 15
-137 16 -860 86 -1131 110 -90 8 -168 17 -173 20 -5 4 -9 131 -9 299 0 162 -3
307 -6 324 -6 30 -7 31 -31 15 -20 -13 -26 -14 -33 -4 -6 10 -9 10 -15 1 -6
-9 -10 -9 -16 1 -5 8 -9 9 -9 3 0 -17 -212 -13 -234 5 -13 11 -16 11 -16 0 0
-10 -2 -11 -8 -2 -5 8 -13 9 -22 3z"/>
<path d="M2748 3513 c7 -3 16 -2 19 1 4 3 -2 6 -13 5 -11 0 -14 -3 -6 -6z"/>
<path d="M6372 3495 c0 -16 2 -22 5 -12 2 9 2 23 0 30 -3 6 -5 -1 -5 -18z"/>
<path d="M6558 3263 c6 -2 18 -2 25 0 6 3 1 5 -13 5 -14 0 -19 -2 -12 -5z"/>
<path d="M6160 3014 c1 -22 19 -36 39 -29 13 4 119 -18 268 -54 593 -145 822
-197 987 -225 4 0 10 9 12 22 4 20 0 22 -40 22 -25 0 -48 5 -51 10 -4 6 -30 8
-68 4 -50 -5 -87 0 -187 24 -69 17 -233 56 -365 87 -132 31 -280 67 -330 80
-49 14 -121 31 -160 39 -38 8 -78 18 -87 21 -10 4 -18 3 -18 -1z"/>
<path d="M2215 2990 c-3 -5 -2 -10 4 -10 5 0 13 5 16 10 3 6 2 10 -4 10 -5 0
-13 -4 -16 -10z"/>
<path d="M1950 2680 c0 -5 5 -10 11 -10 5 0 7 5 4 10 -3 6 -8 10 -11 10 -2 0
-4 -4 -4 -10z"/>
<path d="M6480 2680 l-55 -7 52 -1 c28 -1 55 3 58 8 3 6 5 9 3 8 -2 -1 -28 -4
-58 -8z"/>
<path d="M5518 2673 c7 -3 16 -2 19 1 4 3 -2 6 -13 5 -11 0 -14 -3 -6 -6z"/>
<path d="M5673 2673 c15 -2 39 -2 55 0 15 2 2 4 -28 4 -30 0 -43 -2 -27 -4z"/>
<path d="M5848 2673 c12 -2 30 -2 40 0 9 3 -1 5 -23 4 -22 0 -30 -2 -17 -4z"/>
<path d="M6032 2673 c70 -2 187 -2 260 0 73 1 16 3 -127 3 -143 0 -203 -2
-133 -3z"/>
<path d="M5868 2163 c7 -3 16 -2 19 1 4 3 -2 6 -13 5 -11 0 -14 -3 -6 -6z"/>
<path d="M5918 2163 c7 -3 16 -2 19 1 4 3 -2 6 -13 5 -11 0 -14 -3 -6 -6z"/>
<path d="M5958 2163 c6 -2 18 -2 25 0 6 3 1 5 -13 5 -14 0 -19 -2 -12 -5z"/>
<path d="M6013 2163 c9 -2 25 -2 35 0 9 3 1 5 -18 5 -19 0 -27 -2 -17 -5z"/>
<path d="M6073 2163 c4 -3 96 -7 205 -7 108 -1 202 -4 209 -9 6 -4 14 -3 17 2
6 9 193 7 226 -4 11 -3 20 -2 20 4 0 5 15 11 33 13 17 3 -136 5 -342 6 -206 1
-371 -1 -368 -5z"/>
<path d="M6858 2163 c7 -3 16 -2 19 1 4 3 -2 6 -13 5 -11 0 -14 -3 -6 -6z"/>
<path d="M6896 2161 c6 -6 87 -1 94 6 2 2 -19 3 -48 2 -28 -1 -49 -5 -46 -8z"/>
<path d="M7020 2166 c0 -2 7 -6 15 -10 8 -3 15 -1 15 4 0 6 -7 10 -15 10 -8 0
-15 -2 -15 -4z"/>
</g>
</svg>
