<?xml version="1.0" standalone="no"?>
<!DOCTYPE svg PUBLIC "-//W3C//DTD SVG 20010904//EN"
 "http://www.w3.org/TR/2001/REC-SVG-20010904/DTD/svg10.dtd">
<svg version="1.0" xmlns="http://www.w3.org/2000/svg"
 width="853.000000pt" height="1280.000000pt" viewBox="0 0 853.000000 1280.000000"
 preserveAspectRatio="xMidYMid meet">

<g transform="translate(0.000000,1280.000000) scale(0.100000,-0.100000)"
fill="#000000" stroke="none">
<path d="M6060 10328 c0 -4 21 -8 46 -8 25 0 43 -4 40 -8 -3 -5 -28 -7 -56 -5
-28 1 -49 -1 -46 -5 3 -5 -9 -6 -26 -4 -25 4 -30 2 -25 -10 4 -12 0 -14 -14
-11 -10 3 -17 9 -14 13 2 4 -13 4 -35 0 -22 -4 -40 -4 -40 1 0 4 -12 4 -27 0
-16 -4 -65 -6 -110 -5 -46 1 -83 -1 -83 -5 0 -11 -51 -1 -69 13 -11 8 -13 8
-7 -1 4 -7 2 -13 -3 -13 -6 0 -11 6 -11 13 0 9 -3 8 -9 -2 -7 -10 -13 -11 -30
-2 -16 9 -21 9 -21 0 0 -7 -9 -4 -22 7 -19 16 -20 16 -9 1 8 -9 11 -20 7 -24
-3 -3 -6 -2 -6 4 0 17 -21 20 -85 13 -46 -5 -66 -3 -85 9 -23 14 -24 14 -12
-1 10 -12 10 -18 1 -24 -8 -4 -9 -3 -5 5 6 9 -10 11 -59 10 -53 -2 -71 -6 -87
-23 l-20 -21 6 21 c8 26 -19 41 -29 16 -3 -9 -1 -18 4 -20 6 -2 11 -10 11 -17
0 -10 -7 -7 -22 8 -19 18 -21 23 -8 29 11 6 10 7 -5 5 -28 -3 -31 -33 -4 -40
14 -4 20 -11 16 -21 -5 -13 -2 -13 21 -4 15 7 31 15 37 20 12 11 45 10 45 -1
0 -5 11 -11 25 -13 14 -3 25 -2 25 3 0 4 15 3 33 -3 17 -5 44 -9 60 -9 15 1
27 -2 27 -6 0 -5 -60 -9 -133 -10 -72 -1 -143 -2 -157 -3 -14 -1 -101 -1 -195
0 -93 1 -174 1 -180 0 -28 -6 -66 1 -59 11 5 8 1 8 -14 0 -26 -14 -42 -14 -42
0 0 5 5 7 10 4 6 -3 10 -1 10 4 0 15 -16 14 -43 -2 -12 -8 -53 -15 -91 -16
-38 -1 -73 -4 -77 -7 -5 -3 -9 -1 -9 4 0 4 -17 7 -37 5 -88 -8 -320 -9 -346
-2 -15 4 -25 5 -23 1 2 -4 -267 -8 -597 -9 -331 -1 -639 -4 -684 -6 -46 -3
-81 -2 -78 2 2 4 -20 4 -49 0 -48 -6 -97 -6 -266 3 -33 2 -60 8 -60 13 0 6 -4
5 -8 -2 -8 -12 -27 -12 -95 2 -32 6 -37 10 -31 27 4 14 3 18 -5 13 -7 -4 -17
-2 -24 3 -9 7 -118 26 -134 24 -2 -1 -16 3 -33 8 -36 10 -35 23 -15 -170 15
-148 30 -220 44 -220 5 0 20 9 34 20 14 11 28 20 31 20 4 0 17 9 29 20 20 19
22 20 28 3 5 -13 8 -8 10 17 4 34 6 35 54 41 28 3 42 7 33 7 -23 2 -22 8 1 38
13 17 21 20 24 12 4 -10 10 -8 21 6 8 10 19 15 24 12 6 -3 12 -1 14 6 2 6 24
13 49 14 80 6 598 16 1024 20 231 2 425 4 430 4 6 0 204 -1 440 -1 237 -1 599
0 805 1 206 1 479 -1 605 -4 127 -4 314 -8 416 -10 103 -2 192 -7 199 -11 8
-5 11 -4 7 2 -4 6 16 4 46 -4 59 -15 106 -25 125 -26 6 0 12 -4 12 -8 0 -5 6
-6 14 -3 7 3 20 -2 29 -10 18 -18 42 -22 31 -5 -4 7 3 6 17 -2 13 -7 28 -12
32 -11 5 1 6 -2 2 -8 -3 -5 7 -18 23 -27 16 -10 27 -24 24 -32 -3 -8 0 -11 7
-7 6 4 11 2 11 -3 0 -6 4 -11 10 -11 11 0 25 75 35 190 3 36 10 89 15 119 13
71 13 71 -7 71 -14 0 -15 -2 -4 -9 8 -5 9 -11 3 -15 -6 -4 -15 2 -21 11 -9 17
-33 18 -295 19 -157 0 -286 -3 -286 -8z m348 -13 c-8 -9 -206 -10 -214 -2 -4
4 44 7 106 7 62 0 111 -2 108 -5z m219 -1 c-3 -3 -12 -4 -19 -1 -8 3 -5 6 6 6
11 1 17 -2 13 -5z m-840 -50 c-3 -3 -12 -4 -19 -1 -8 3 -5 6 6 6 11 1 17 -2
13 -5z m-217 -18 c0 -2 -7 -6 -15 -10 -8 -3 -15 -1 -15 4 0 6 7 10 15 10 8 0
15 -2 15 -4z m153 -17 c13 -18 18 -19 37 -9 12 6 24 9 27 6 12 -12 -52 -26
-118 -26 -65 0 -69 1 -69 23 1 20 1 21 11 4 10 -18 11 -18 26 0 13 16 14 17 9
1 -3 -10 -1 -18 4 -18 6 0 10 7 10 15 0 9 6 12 17 8 11 -4 14 -3 9 5 -13 21
22 13 37 -9z m292 1 c3 -5 1 -10 -4 -10 -6 0 -11 5 -11 10 0 6 2 10 4 10 3 0
8 -4 11 -10z m-550 -10 c11 -5 16 -9 10 -10 -63 -10 -110 -2 -65 11 32 9 32 9
55 -1z m71 -5 c18 -14 17 -14 -12 -15 -21 0 -31 5 -31 15 0 19 18 19 43 0z
m54 -6 c0 -14 -17 -10 -23 5 -4 10 -1 13 9 9 7 -3 14 -9 14 -14z m244 8 c13 3
27 0 30 -5 4 -7 -8 -10 -33 -9 -30 1 -37 5 -33 16 3 8 7 10 9 4 2 -5 14 -8 27
-6z m216 -3 c0 -8 -5 -12 -10 -9 -6 4 -8 11 -5 16 9 14 15 11 15 -7z"/>
<path d="M5700 10220 c0 -5 5 -10 11 -10 5 0 7 5 4 10 -3 6 -8 10 -11 10 -2 0
-4 -4 -4 -10z"/>
<path d="M3758 10323 c7 -3 16 -2 19 1 4 3 -2 6 -13 5 -11 0 -14 -3 -6 -6z"/>
<path d="M4003 10323 c9 -2 23 -2 30 0 6 3 -1 5 -18 5 -16 0 -22 -2 -12 -5z"/>
<path d="M4273 10323 c126 -2 328 -2 450 0 122 1 20 2 -228 2 -247 0 -347 -1
-222 -2z"/>
<path d="M4973 10323 c9 -2 23 -2 30 0 6 3 -1 5 -18 5 -16 0 -22 -2 -12 -5z"/>
<path d="M5088 10323 c34 -2 90 -2 125 0 34 2 6 3 -63 3 -69 0 -97 -1 -62 -3z"/>
<path d="M5378 10323 c29 -2 74 -2 100 0 26 2 2 3 -53 3 -55 0 -76 -1 -47 -3z"/>
<path d="M5538 10323 c7 -3 16 -2 19 1 4 3 -2 6 -13 5 -11 0 -14 -3 -6 -6z"/>
<path d="M5597 10323 c18 -2 50 -2 70 0 21 2 7 4 -32 4 -38 0 -55 -2 -38 -4z"/>
<path d="M5743 10323 c15 -2 37 -2 50 0 12 2 0 4 -28 4 -27 0 -38 -2 -22 -4z"/>
<path d="M5828 10323 c7 -3 16 -2 19 1 4 3 -2 6 -13 5 -11 0 -14 -3 -6 -6z"/>
<path d="M5893 10323 c20 -2 54 -2 75 0 20 2 3 4 -38 4 -41 0 -58 -2 -37 -4z"/>
<path d="M6028 10323 c7 -3 16 -2 19 1 4 3 -2 6 -13 5 -11 0 -14 -3 -6 -6z"/>
<path d="M4890 10279 c0 -5 -4 -7 -10 -4 -5 3 -10 -1 -10 -9 0 -19 23 -22 128
-15 34 3 42 7 42 22 0 17 -2 18 -17 6 -13 -11 -17 -12 -21 -1 -3 10 -9 9 -25
-5 -11 -10 -17 -12 -13 -5 4 6 2 12 -3 12 -6 0 -11 -5 -11 -11 0 -8 -4 -8 -14
0 -11 10 -17 8 -26 -6 -10 -16 -10 -15 -5 5 4 13 2 22 -4 22 -6 0 -11 -5 -11
-11z"/>
<path d="M4603 10265 c0 -8 9 -15 19 -15 22 0 24 16 2 24 -21 8 -21 8 -21 -9z"/>
<path d="M4680 10268 c0 -4 11 -7 25 -6 33 3 33 16 0 14 -14 0 -25 -4 -25 -8z"/>
<path d="M4750 10258 c0 -4 8 -8 18 -9 9 -1 33 -2 52 -4 31 -3 33 -2 16 11
-20 14 -86 16 -86 2z"/>
<path d="M5050 10239 c0 -5 5 -7 10 -4 6 3 10 8 10 11 0 2 -4 4 -10 4 -5 0
-10 -5 -10 -11z"/>
<path d="M5075 10230 c-3 -5 -2 -10 4 -10 5 0 13 5 16 10 3 6 2 10 -4 10 -5 0
-13 -4 -16 -10z"/>
<path d="M2102 7923 l2 -2078 6 2007 c3 1103 8 2010 13 2014 4 4 7 -1 7 -12 0
-14 5 -10 21 15 30 49 48 65 78 66 15 1 38 9 51 18 22 16 21 16 -41 20 -35 2
376 4 913 5 893 2 977 1 971 -14 -3 -9 -1 -19 5 -23 6 -4 15 -54 20 -111 l9
-105 2 128 1 127 1145 0 1145 0 2 -3437 c1 -1891 3 -3411 5 -3378 1 33 4 1584
5 3448 l3 3387 -2182 0 -2183 0 2 -2077z"/>
<path d="M4360 9940 c0 -16 2 -30 4 -30 2 0 6 14 8 30 3 17 1 30 -4 30 -4 0
-8 -13 -8 -30z"/>
<path d="M6281 9966 c2 -2 27 -6 54 -9 72 -7 93 -16 98 -41 2 -12 5 -5 6 17
l1 37 -82 0 c-45 0 -79 -2 -77 -4z"/>
<path d="M3551 9705 c7 -6 420 -8 427 -1 3 3 -93 6 -213 6 -120 0 -216 -2
-214 -5z"/>
<path d="M4568 9703 c7 -3 16 -2 19 1 4 3 -2 6 -13 5 -11 0 -14 -3 -6 -6z"/>
<path d="M4623 9703 c15 -2 39 -2 55 0 15 2 2 4 -28 4 -30 0 -43 -2 -27 -4z"/>
<path d="M4898 9703 c84 -2 219 -2 300 0 81 1 12 3 -153 3 -165 0 -231 -2
-147 -3z"/>
<path d="M5438 9703 c23 -2 61 -2 85 0 23 2 4 4 -43 4 -47 0 -66 -2 -42 -4z"/>
<path d="M5598 9703 c18 -2 45 -2 60 0 15 2 0 4 -33 4 -33 0 -45 -2 -27 -4z"/>
<path d="M5733 9703 c9 -2 25 -2 35 0 9 3 1 5 -18 5 -19 0 -27 -2 -17 -5z"/>
<path d="M5798 9703 c7 -3 16 -2 19 1 4 3 -2 6 -13 5 -11 0 -14 -3 -6 -6z"/>
<path d="M5868 9703 c7 -3 16 -2 19 1 4 3 -2 6 -13 5 -11 0 -14 -3 -6 -6z"/>
<path d="M6060 9704 c34 -7 110 -9 110 -2 0 5 -28 7 -62 7 -35 -1 -56 -3 -48
-5z"/>
<path d="M2408 9693 c7 -3 16 -2 19 1 4 3 -2 6 -13 5 -11 0 -14 -3 -6 -6z"/>
<path d="M2473 9693 c9 -2 23 -2 30 0 6 3 -1 5 -18 5 -16 0 -22 -2 -12 -5z"/>
<path d="M2623 9693 c48 -2 125 -2 170 0 45 1 6 3 -88 3 -93 0 -130 -2 -82 -3z"/>
<path d="M2918 9693 c7 -3 16 -2 19 1 4 3 -2 6 -13 5 -11 0 -14 -3 -6 -6z"/>
<path d="M2963 9693 c9 -2 23 -2 30 0 6 3 -1 5 -18 5 -16 0 -22 -2 -12 -5z"/>
<path d="M3073 9693 c9 -2 23 -2 30 0 6 3 -1 5 -18 5 -16 0 -22 -2 -12 -5z"/>
<path d="M2756 9672 c-330 -2 -367 -4 -362 -18 3 -9 6 -364 6 -790 l0 -774
360 0 360 0 1 673 c0 369 4 724 8 787 4 63 5 117 2 120 -3 3 -172 4 -375 2z
m-329 -744 c-3 -8 -6 -5 -6 6 -1 11 2 17 5 13 3 -3 4 -12 1 -19z m0 -185 c-3
-10 -5 -4 -5 12 0 17 2 24 5 18 2 -7 2 -21 0 -30z"/>
<path d="M3217 9673 c-2 -2 0 -24 4 -51 4 -26 8 -381 9 -789 l1 -743 364 0
365 0 0 538 c0 296 3 655 7 796 l6 257 -376 -2 c-207 -1 -378 -4 -380 -6z"/>
<path d="M4580 9322 c0 -197 3 -555 7 -795 l6 -437 362 0 362 0 6 773 c3 424
9 782 13 795 l6 22 -381 0 -381 0 0 -358z"/>
<path d="M5427 8938 c1 -409 5 -766 8 -795 l6 -52 355 2 354 2 0 195 c0 107 3
464 7 793 l6 597 -369 0 -369 0 2 -742z"/>
<path d="M3475 7983 l-250 -3 6 -238 c4 -130 7 -486 8 -789 l1 -553 360 0 360
0 2 713 c1 391 2 748 2 792 l1 80 -120 0 c-66 1 -232 0 -370 -2z"/>
<path d="M4576 7960 c3 -14 9 -370 11 -792 l5 -768 363 0 364 0 3 778 c2 431
7 785 12 796 9 17 -4 18 -378 15 l-387 -4 7 -25z"/>
<path d="M5424 7974 c3 -9 6 -366 6 -795 l0 -779 360 0 360 0 0 548 c0 301 3
658 7 795 l6 247 -372 0 c-336 0 -373 -2 -367 -16z"/>
<path d="M2394 7949 c3 -17 6 -373 6 -790 l0 -759 360 0 360 0 0 668 c0 368 3
724 7 790 l6 122 -373 0 -372 0 6 -31z m99 -1536 c-7 -2 -21 -2 -30 0 -10 3
-4 5 12 5 17 0 24 -2 18 -5z m44 1 c-3 -3 -12 -4 -19 -1 -8 3 -5 6 6 6 11 1
17 -2 13 -5z m251 -1 c-10 -2 -28 -2 -40 0 -13 2 -5 4 17 4 22 1 32 -1 23 -4z"/>
<path d="M2391 6248 c4 -24 8 -377 9 -785 l0 -743 360 0 360 0 0 558 c0 518 7
954 15 995 3 16 -20 17 -375 17 l-377 0 8 -42z m26 -1040 c-3 -7 -5 -2 -5 12
0 14 2 19 5 13 2 -7 2 -19 0 -25z m0 -50 c-3 -8 -6 -5 -6 6 -1 11 2 17 5 13 3
-3 4 -12 1 -19z m0 -150 c-3 -7 -5 -2 -5 12 0 14 2 19 5 13 2 -7 2 -19 0 -25z
m0 -55 c-3 -10 -5 -4 -5 12 0 17 2 24 5 18 2 -7 2 -21 0 -30z m21 -216 c12 -3
11 -5 -5 -6 -22 -1 -23 2 -21 77 l2 77 3 -72 c3 -57 7 -73 21 -76z m89 -3 c-3
-3 -12 -4 -19 -1 -8 3 -5 6 6 6 11 1 17 -2 13 -5z"/>
<path d="M3232 5713 c-1 -318 1 -671 4 -785 l6 -208 359 0 359 0 0 648 c0 357
3 710 7 785 l6 137 -370 0 -370 0 -1 -577z"/>
<path d="M4576 6273 c5 -10 10 -363 12 -785 l3 -768 364 0 365 0 0 718 c0 394
3 747 7 785 l6 67 -383 0 c-361 0 -382 -1 -374 -17z"/>
<path d="M5423 6275 c4 -8 7 -361 8 -785 l1 -770 359 0 359 0 0 698 c1 383 3
736 6 785 l6 87 -372 0 c-322 0 -371 -2 -367 -15z"/>
<path d="M2094 5395 c0 -115 2 -161 3 -102 2 59 2 154 0 210 -1 56 -3 8 -3
-108z"/>
<path d="M2093 5105 c0 -38 2 -53 4 -32 2 20 2 52 0 70 -2 17 -4 1 -4 -38z"/>
<path d="M2093 4970 c0 -30 2 -43 4 -27 2 15 2 39 0 55 -2 15 -4 2 -4 -28z"/>
<path d="M2094 4705 c0 -115 2 -161 3 -102 2 59 2 154 0 210 -1 56 -3 8 -3
-108z"/>
<path d="M2386 4588 c5 -13 9 -362 9 -776 l0 -752 363 0 362 0 0 698 c0 385 3
733 6 775 l7 77 -234 -2 -234 -2 230 -6 c219 -5 213 -6 -138 -8 -243 -1 -366
1 -362 8 3 6 1 10 -6 10 -8 0 -9 -7 -3 -22z"/>
<path d="M2438 4603 c18 -2 45 -2 60 0 15 2 0 4 -33 4 -33 0 -45 -2 -27 -4z"/>
<path d="M3453 4603 c97 -2 257 -2 355 0 97 1 17 2 -178 2 -195 0 -275 -1
-177 -2z"/>
<path d="M4576 4593 c5 -10 10 -361 12 -780 l3 -763 364 0 365 0 0 688 c0 378
3 724 7 770 l6 82 -379 2 -379 3 370 5 370 5 -374 3 c-352 2 -373 1 -365 -15z"/>
<path d="M5628 4603 c100 -2 264 -2 365 0 100 1 18 2 -183 2 -201 0 -283 -1
-182 -2z"/>
<path d="M3228 3819 l2 -771 258 6 c141 3 307 6 369 6 l112 0 -2 765 -2 765
-370 0 -370 0 3 -771z"/>
<path d="M5435 3822 l0 -767 358 -3 357 -2 0 732 c0 403 3 750 6 771 l7 37
-364 0 -364 0 0 -768z"/>
<path d="M2093 4400 c0 -41 2 -58 4 -37 2 20 2 54 0 75 -2 20 -4 3 -4 -38z"/>
<path d="M6450 2766 l0 -43 -46 -7 c-67 -9 -2041 -7 -2027 2 31 19 -8 30 -120
34 -89 2 -117 0 -117 -9 0 -7 -12 -13 -27 -14 l-28 -1 25 -8 c14 -5 -435 -7
-998 -7 -562 1 -1022 -1 -1022 -5 0 -5 983 -8 2185 -8 l2185 0 0 55 c0 30 -2
55 -5 55 -3 0 -5 -20 -5 -44z"/>
<path d="M1360 2158 c0 -9 8 -19 19 -23 46 -14 915 -19 2371 -13 267 1 787 -1
1155 -5 865 -10 2279 -12 2294 -3 6 4 11 18 11 32 l0 24 -1387 2 c-3997 6
-4463 4 -4463 -14z"/>
</g>
</svg>
