<?xml version="1.0" standalone="no"?>
<!DOCTYPE svg PUBLIC "-//W3C//DTD SVG 20010904//EN"
 "http://www.w3.org/TR/2001/REC-SVG-20010904/DTD/svg10.dtd">
<svg version="1.0" xmlns="http://www.w3.org/2000/svg"
 width="853.000000pt" height="1280.000000pt" viewBox="0 0 853.000000 1280.000000"
 preserveAspectRatio="xMidYMid meet">

<g transform="translate(0.000000,1280.000000) scale(0.100000,-0.100000)"
fill="#000000" stroke="none">
<path d="M7189 8114 c0 -1259 0 -2977 1 -3818 l1 -1528 -73 7 c-40 4 -149 29
-243 55 -225 64 -520 146 -571 159 -25 7 -57 8 -80 3 l-39 -8 75 -18 c41 -9
84 -20 95 -22 17 -5 18 -3 5 6 -13 10 -12 11 5 7 54 -15 472 -132 640 -180
105 -30 192 -53 195 -50 6 6 0 7666 -6 7672 -2 2 -4 -1026 -5 -2285z"/>
<path d="M1396 10088 c-10 -520 -17 -7352 -7 -7367 12 -18 16 -17 361 101 151
52 286 97 300 101 13 3 22 8 19 11 -6 6 -153 -36 -339 -97 -172 -57 -212 -68
-205 -56 4 5 1 9 -5 9 -8 0 -10 722 -8 2584 2 1421 1 2582 -2 2579 -3 -2 -7
-1167 -10 -2587 -5 -2564 -5 -2582 -25 -2602 -11 -12 -33 -24 -49 -28 l-29 -7
7 2033 c7 2352 9 5618 3 5625 -3 2 -7 -132 -11 -299z"/>
<path d="M1515 9250 c0 -630 1 -887 2 -573 2 315 2 831 0 1145 -1 315 -2 58
-2 -572z"/>
<path d="M6575 10251 c-22 -10 -74 -21 -116 -24 -41 -3 -82 -9 -90 -12 -7 -3
-34 -6 -59 -8 -31 -2 -45 -7 -45 -17 0 -14 -54 -31 -103 -32 -18 0 -21 -3 -11
-14 7 -8 9 -18 5 -22 -10 -10 -3464 -16 -3596 -6 -73 5 -96 10 -75 14 25 6 27
8 12 15 -9 4 -27 5 -38 2 -11 -3 -35 1 -54 9 -19 7 -41 11 -50 8 -9 -4 -33 -2
-53 4 -20 6 -62 15 -92 21 -30 5 -82 15 -115 22 -32 6 -73 13 -90 14 -16 2
-39 6 -50 10 -16 6 -17 5 -5 -4 11 -8 11 -11 2 -11 -7 0 -15 7 -18 15 -8 21
-19 19 -21 -4 -2 -24 36 -55 222 -186 160 -112 173 -121 225 -169 l39 -35 7
-368 c3 -202 8 -370 10 -372 2 -2 4 37 4 87 0 81 3 95 22 114 21 21 22 21 29
2 4 -10 8 -38 8 -61 1 -24 6 -43 11 -43 6 0 10 -17 10 -39 0 -21 6 -44 14 -50
8 -7 17 -23 20 -37 5 -17 12 -24 21 -20 8 3 17 0 21 -6 4 -6 3 -8 -4 -4 -7 4
-10 -4 -10 -24 1 -16 5 -30 9 -30 4 0 10 -12 12 -27 2 -17 5 -10 6 20 0 26 6
47 11 47 6 0 53 -21 105 -47 86 -45 94 -50 99 -83 3 -19 6 -295 6 -612 0 -379
3 -578 10 -578 6 0 10 121 11 343 0 188 2 356 3 372 1 17 3 122 5 235 2 122 7
191 11 170 7 -31 8 -32 9 -8 1 22 5 27 23 25 15 -1 23 5 27 19 6 20 9 20 89
-19 l82 -39 0 -593 0 -592 26 -12 c15 -6 28 -10 29 -9 6 7 15 378 16 723 1
209 4 362 6 340 4 -40 23 -75 23 -42 0 9 11 19 25 23 19 5 24 11 20 25 -4 11
-2 19 3 19 6 0 13 -33 16 -72 4 -40 12 -102 18 -137 18 -96 26 -46 28 181 1
106 5 229 10 273 4 50 8 -93 10 -375 1 -250 6 -507 9 -570 4 -65 8 142 9 477
l2 591 -52 30 c-29 16 -138 75 -243 130 -514 270 -594 317 -576 335 14 14
3517 15 3532 0 5 -5 -13 -22 -46 -42 -31 -19 -54 -36 -51 -38 2 -2 22 7 45 21
22 14 43 26 45 26 2 0 8 -51 12 -112 6 -77 10 -102 14 -78 6 34 6 33 14 -20 5
-30 10 -58 11 -62 2 -5 3 -44 4 -89 0 -44 5 -78 9 -75 15 9 22 -477 22 -1517
0 -556 2 -1008 5 -1006 2 3 5 743 6 1645 l1 1639 28 20 28 20 -892 -3 c-490
-1 -913 -3 -941 -4 -43 -1 -45 -2 -12 -5 32 -4 37 -8 37 -30 l0 -26 68 7 c61
7 456 13 1099 19 139 2 255 6 259 10 4 4 13 2 21 -4 9 -9 17 -8 27 0 10 9 16
9 21 1 4 -6 28 -10 53 -10 64 1 158 -7 171 -15 19 -11 12 -34 -11 -39 -65 -13
-274 -16 -1814 -22 -1675 -7 -1744 -6 -1744 26 0 22 286 32 911 34 360 0 681
-1 714 -3 l60 -5 3 32 3 31 -895 3 -894 3 -21 24 c-29 33 -26 46 14 65 19 9
37 21 40 27 15 23 120 59 184 63 36 2 107 7 156 10 50 3 207 8 350 11 143 3
301 7 350 9 53 2 95 0 103 -6 8 -7 17 -6 29 3 13 11 17 11 20 1 3 -7 10 -9 16
-5 13 9 697 12 697 3 0 -3 18 -5 40 -5 22 0 40 3 40 8 0 12 78 8 82 -4 3 -9 9
-9 25 0 25 13 57 15 49 2 -3 -4 9 -6 27 -3 73 13 839 4 1027 -12 25 -2 53 0
62 5 11 6 19 5 24 -2 3 -6 14 -9 24 -6 9 2 25 0 34 -5 10 -6 16 -5 16 1 0 6
17 8 43 5 23 -3 82 -7 131 -10 67 -3 92 -8 101 -21 11 -15 13 -15 22 1 9 16
11 16 16 2 4 -9 12 -16 19 -16 17 0 117 -49 102 -50 -16 0 -26 -28 -17 -45 6
-10 28 -1 93 39 47 30 138 86 203 126 65 39 114 76 111 82 -4 5 3 23 15 39 21
29 27 50 14 48 -5 0 -26 -8 -48 -18z m-3680 -1391 c3 -5 1 -10 -4 -10 -6 0
-11 5 -11 10 0 6 2 10 4 10 3 0 8 -4 11 -10z m217 -895 c3 -14 1 -28 -3 -31
-5 -3 -9 9 -9 25 0 38 6 40 12 6z m-5 -67 c-3 -8 -6 -5 -6 6 -1 11 2 17 5 13
3 -3 4 -12 1 -19z m5 -145 c2 -67 1 -120 -4 -117 -4 3 -8 60 -8 126 0 67 2
119 4 117 2 -2 6 -59 8 -126z"/>
<path d="M6078 10133 c7 -3 16 -2 19 1 4 3 -2 6 -13 5 -11 0 -14 -3 -6 -6z"/>
<path d="M1698 9922 c-5 -27 3 -82 13 -82 4 0 30 -14 56 -30 26 -17 53 -28 60
-26 34 13 35 -15 38 -700 2 -372 6 -678 9 -682 3 -3 6 249 6 559 1 310 5 625
10 699 9 133 9 135 -13 152 l-22 17 23 -6 c38 -9 24 7 -23 27 -24 10 -69 35
-99 54 -46 30 -55 32 -58 18z m46 -27 c11 -8 16 -15 10 -15 -5 0 -18 7 -28 15
-11 8 -16 15 -10 15 5 0 18 -7 28 -15z m70 -86 c5 -4 -1 -5 -13 -2 -11 3 -21
8 -21 12 0 4 -16 13 -35 21 -19 8 -35 19 -35 27 0 10 70 -29 104 -58z m16 35
c0 -2 -9 0 -20 6 -11 6 -20 13 -20 16 0 2 9 0 20 -6 11 -6 20 -13 20 -16z"/>
<path d="M6765 9871 l-120 -69 1 -53 c1 -30 5 -387 10 -794 l9 -740 5 777 c4
587 8 780 17 789 9 9 12 -73 13 -376 0 -214 3 -391 5 -394 3 -2 6 166 7 375 0
208 2 384 3 389 2 6 3 15 4 20 0 6 41 31 90 55 72 36 90 49 90 68 1 12 -2 22
-6 22 -5 -1 -62 -32 -128 -69z"/>
<path d="M1982 9469 c0 -162 4 -271 7 -244 4 33 9 45 15 37 4 -7 5 -16 2 -19
-3 -3 0 -13 6 -21 15 -17 14 -15 32 -127 23 -143 26 -177 31 -415 8 -362 16
-535 27 -541 6 -4 5 -9 -3 -12 -12 -4 -11 -7 1 -16 8 -6 18 -11 21 -11 16 0
19 91 19 515 0 571 9 910 24 895 8 -8 13 -231 16 -728 5 -600 6 -653 9 -322 2
217 4 438 6 490 2 52 6 214 10 360 3 146 8 274 11 286 5 17 -10 30 -93 79 -54
32 -108 65 -120 73 l-23 14 2 -293z"/>
<path d="M6484 9716 c-29 -17 -91 -52 -138 -76 -83 -43 -103 -60 -71 -60 13 0
15 -91 15 -756 0 -600 3 -755 13 -752 9 4 13 157 17 706 4 542 8 704 18 714 9
10 12 -32 13 -207 1 -121 2 -233 3 -250 1 -16 3 -235 4 -487 l2 -456 73 30
c74 31 101 46 58 33 l-24 -7 8 78 c5 44 8 91 7 107 -1 15 3 27 8 27 6 0 10 5
10 11 0 5 -4 7 -10 4 -5 -3 -10 -1 -10 4 0 6 3 11 8 11 4 0 6 38 4 85 -2 47 1
85 6 85 4 0 9 15 9 33 1 17 4 70 8 116 3 46 2 87 -2 90 -5 3 -1 13 8 23 16 15
17 -2 18 -295 1 -171 4 -313 6 -316 3 -2 5 343 5 767 0 425 -3 772 -7 771 -5
0 -31 -15 -59 -33z m50 -826 c4 -25 3 -31 -4 -20 -5 8 -10 26 -10 39 0 32 6
24 14 -19z"/>
<path d="M5734 9374 c-18 -14 -18 -15 4 -4 12 6 22 13 22 15 0 8 -5 6 -26 -11z"/>
<path d="M5695 9350 c-3 -5 -1 -10 4 -10 6 0 11 5 11 10 0 6 -2 10 -4 10 -3 0
-8 -4 -11 -10z"/>
<path d="M5630 9310 c-9 -6 -10 -10 -3 -10 6 0 15 5 18 10 8 12 4 12 -15 0z"/>
<path d="M5586 9281 c-4 -5 3 -7 14 -4 23 6 26 13 6 13 -8 0 -17 -4 -20 -9z"/>
<path d="M5530 9248 c-106 -66 -153 -98 -144 -98 15 0 198 119 184 119 -3 1
-21 -9 -40 -21z"/>
<path d="M5861 9162 c-1 -7 -5 -10 -11 -7 -5 3 -10 1 -10 -5 0 -6 -5 -8 -10
-5 -6 4 -24 -1 -42 -9 -40 -20 -44 -20 -27 1 8 9 -24 -4 -71 -30 -47 -25 -84
-51 -83 -56 2 -6 -3 -8 -10 -5 -7 2 -39 -12 -72 -32 -117 -72 -226 -134 -236
-134 -5 0 -7 11 -3 24 3 13 1 27 -5 30 -8 5 -10 -61 -9 -226 l3 -233 2 198 c3
152 6 198 16 194 6 -2 13 -13 15 -25 2 -12 8 -22 13 -22 5 0 9 -18 9 -41 0
-24 4 -38 10 -34 6 4 10 -9 10 -30 0 -28 4 -36 14 -32 9 4 16 -4 20 -25 3 -17
6 -255 6 -530 0 -395 3 -499 13 -496 7 3 14 31 18 69 l6 64 1 -58 c2 -42 6
-57 15 -55 9 4 13 134 17 589 l5 584 47 32 c26 17 53 33 59 35 7 2 11 26 10
61 0 32 3 57 9 57 6 0 11 -8 12 -17 0 -10 2 -23 2 -28 1 -6 9 -20 18 -33 11
-17 17 -20 21 -10 3 7 6 -256 6 -584 1 -525 3 -598 16 -598 13 0 15 46 15 353
1 193 3 465 6 602 6 266 23 357 26 145 l2 -125 6 130 5 130 73 43 c78 47 90
66 74 123 -6 19 -11 28 -11 21z m-136 -58 c-28 -21 -55 -36 -55 -29 0 6 62 45
70 45 3 -1 -4 -8 -15 -16z"/>
<path d="M5313 9104 l-28 -25 33 22 c17 13 32 24 32 26 0 8 -11 1 -37 -23z"/>
<path d="M5247 9063 c-4 -3 -6 -529 -5 -1167 2 -639 4 -1039 5 -891 3 261 9
2065 7 2065 0 0 -4 -3 -7 -7z"/>
<path d="M5281 8974 c0 -11 3 -14 6 -6 3 7 2 16 -1 19 -3 4 -6 -2 -5 -13z"/>
<path d="M6702 8940 c0 -19 2 -27 5 -17 2 9 2 25 0 35 -3 9 -5 1 -5 -18z"/>
<path d="M6703 8790 c0 -41 2 -58 4 -37 2 20 2 54 0 75 -2 20 -4 3 -4 -38z"/>
<path d="M2901 8814 c0 -11 3 -14 6 -6 3 7 2 16 -1 19 -3 4 -6 -2 -5 -13z"/>
<path d="M6702 8670 c0 -19 2 -27 5 -17 2 9 2 25 0 35 -3 9 -5 1 -5 -18z"/>
<path d="M5350 8665 c0 -15 18 -40 24 -34 3 3 -1 14 -9 25 -8 10 -14 15 -15 9z"/>
<path d="M6701 8594 c0 -11 3 -14 6 -6 3 7 2 16 -1 19 -3 4 -6 -2 -5 -13z"/>
<path d="M6703 8440 c0 -25 2 -35 4 -22 2 12 2 32 0 45 -2 12 -4 2 -4 -23z"/>
<path d="M3273 8370 c0 -25 2 -35 4 -22 2 12 2 32 0 45 -2 12 -4 2 -4 -23z"/>
<path d="M5711 8364 c0 -11 3 -14 6 -6 3 7 2 16 -1 19 -3 4 -6 -2 -5 -13z"/>
<path d="M1871 8214 c0 -11 3 -14 6 -6 3 7 2 16 -1 19 -3 4 -6 -2 -5 -13z"/>
<path d="M6541 8184 c0 -11 3 -14 6 -6 3 7 2 16 -1 19 -3 4 -6 -2 -5 -13z"/>
<path d="M6765 8140 l-120 -48 0 -56 c1 -31 2 -385 3 -788 1 -452 6 -728 11
-722 6 5 11 318 13 771 2 593 6 765 16 775 9 10 12 -6 12 -80 0 -62 4 -92 11
-92 9 0 10 23 6 80 -3 44 -3 88 0 98 5 20 158 87 174 76 5 -3 9 4 9 15 0 12
-3 21 -7 20 -5 0 -62 -22 -128 -49z"/>
<path d="M1690 8146 c0 -8 11 -17 25 -20 16 -4 23 -11 19 -18 -5 -7 -3 -8 5
-4 15 9 73 -13 66 -24 -3 -5 5 -10 17 -12 16 -2 24 -12 30 -38 4 -19 7 -361 8
-759 0 -399 3 -727 5 -730 3 -2 5 290 6 650 0 360 4 706 9 769 10 134 16 125
-102 170 -92 35 -88 34 -88 16z"/>
<path d="M1512 8075 c0 -16 2 -22 5 -12 2 9 2 23 0 30 -3 6 -5 -1 -5 -18z"/>
<path d="M6422 8005 c-62 -25 -117 -45 -122 -45 -6 0 -10 -274 -10 -755 0
-650 2 -755 14 -755 13 0 15 101 20 713 2 391 6 724 8 740 3 15 9 31 14 35 5
4 7 4 4 0 -3 -4 -1 -67 3 -140 5 -73 6 -404 4 -736 -3 -518 -2 -602 11 -597 7
3 24 8 35 10 21 6 22 11 22 133 0 70 4 195 8 277 4 83 9 238 12 345 2 107 8
278 12 380 4 102 8 215 8 253 0 37 3 67 6 67 3 0 6 7 6 15 0 8 -6 15 -14 15
-7 0 -13 6 -13 13 0 14 60 47 84 47 8 0 16 7 20 15 8 22 -8 19 -132 -30z"/>
<path d="M1978 8034 c-9 -8 2 -34 14 -34 21 0 128 -53 128 -63 0 -8 -4 -7 -11
0 -13 13 -42 6 -34 -8 3 -4 0 -17 -6 -27 -9 -15 -9 -43 0 -123 13 -112 29
-453 36 -749 7 -306 14 -492 20 -498 4 -4 10 755 10 1295 0 103 1 110 18 102
10 -6 17 -21 17 -37 -2 -260 9 -1424 14 -1429 3 -3 6 277 7 623 1 346 2 644 4
662 1 18 6 70 10 115 l6 82 -103 44 c-57 24 -108 45 -114 48 -5 2 -13 1 -16
-3z"/>
<path d="M6541 7974 c0 -11 3 -14 6 -6 3 7 2 16 -1 19 -3 4 -6 -2 -5 -13z"/>
<path d="M6543 7870 c0 -30 2 -43 4 -27 2 15 2 39 0 55 -2 15 -4 2 -4 -28z"/>
<path d="M6711 7874 c0 -11 3 -14 6 -6 3 7 2 16 -1 19 -3 4 -6 -2 -5 -13z"/>
<path d="M5765 7689 c-50 -22 -99 -38 -110 -35 -11 3 -27 1 -35 -5 -12 -8 -10
-9 8 -4 l22 6 2 -308 c1 -169 2 -467 3 -661 0 -274 3 -352 12 -352 10 0 13
139 15 647 2 506 6 647 16 651 9 3 12 -130 14 -640 l3 -643 5 650 5 649 77 31
c43 16 78 36 78 43 0 18 -16 14 -115 -29z"/>
<path d="M2592 7693 c2 -9 42 -30 104 -54 100 -39 102 -40 108 -77 3 -20 6
-313 6 -649 0 -402 3 -613 10 -613 7 0 11 220 12 635 1 349 2 647 2 661 1 23
-6 29 -49 44 -27 10 -83 29 -123 43 -61 22 -73 24 -70 10z"/>
<path d="M5533 7619 c-6 -6 -17 -11 -24 -13 -8 -1 -23 -7 -34 -14 -19 -12 -18
-13 5 -7 24 6 24 5 5 -7 -11 -7 -38 -20 -60 -28 -26 -10 -40 -22 -39 -33 0 -9
1 -294 2 -632 2 -542 4 -614 17 -609 13 5 15 67 15 467 0 253 2 458 4 456 3
-4 16 -647 16 -831 0 -45 4 -78 10 -78 7 0 10 215 10 624 l0 624 60 24 c33 12
60 29 60 37 0 7 -6 11 -12 8 -7 -3 -22 -8 -33 -12 -20 -7 -20 -6 -1 9 11 9 17
18 15 21 -3 2 -10 0 -16 -6z"/>
<path d="M2923 7593 c-18 -7 -16 -33 1 -33 8 0 47 -12 85 -26 l71 -26 0 -629
c0 -413 3 -629 10 -629 7 0 10 187 11 538 1 295 5 515 9 487 4 -27 8 -270 9
-539 1 -269 4 -492 6 -494 3 -3 7 -3 9 -1 3 3 6 294 7 648 1 693 3 667 -50
657 -13 -2 -39 1 -59 6 -27 8 -32 12 -21 20 11 8 10 9 -4 4 -9 -3 -32 -3 -49
1 -27 5 -29 7 -13 14 13 5 14 8 5 8 -8 -1 -21 -3 -27 -6z"/>
<path d="M5430 7570 c-9 -6 -10 -10 -3 -10 6 0 15 5 18 10 8 12 4 12 -15 0z"/>
<path d="M5375 7561 c-3 -5 -1 -12 5 -16 5 -3 10 1 10 9 0 18 -6 21 -15 7z"/>
<path d="M6072 6530 c0 -14 2 -19 5 -12 2 6 2 18 0 25 -3 6 -5 1 -5 -13z"/>
<path d="M2122 6500 c0 -14 2 -19 5 -12 2 6 2 18 0 25 -3 6 -5 1 -5 -13z"/>
<path d="M1690 6452 c0 -5 35 -17 79 -26 l78 -17 7 -106 c3 -58 6 -400 6 -760
0 -448 3 -652 10 -648 7 5 10 198 7 598 -2 326 0 666 4 757 3 91 6 166 5 167
-1 1 -36 9 -77 18 -41 8 -84 17 -96 20 -13 3 -23 1 -23 -3z"/>
<path d="M6765 6438 c-55 -11 -106 -21 -112 -24 -17 -4 -19 -1524 -3 -1524 6
0 10 136 10 388 0 445 9 1066 16 1100 2 12 9 22 14 22 6 0 11 -264 12 -737 l3
-738 2 735 c2 404 7 738 11 742 4 4 46 15 92 24 47 8 89 20 95 25 13 13 -23
10 -140 -13z"/>
<path d="M6073 6405 c0 -27 2 -38 4 -22 2 15 2 37 0 50 -2 12 -4 0 -4 -28z"/>
<path d="M1980 6392 c0 -4 28 -14 63 -20 34 -7 76 -17 93 -23 l31 -10 6 -157
c4 -86 7 -413 7 -726 0 -313 2 -567 5 -564 2 2 7 317 10 699 4 382 7 710 8
729 l2 35 -80 17 c-129 27 -145 29 -145 20z"/>
<path d="M6405 6366 l-110 -22 -3 -727 c-2 -642 0 -727 13 -727 13 0 15 79 15
659 0 663 4 781 24 781 8 0 10 -197 8 -715 l-2 -715 22 0 c13 0 28 4 33 8 6 4
11 140 13 362 3 469 10 716 23 877 11 126 10 134 -9 167 l-20 34 69 12 c38 7
69 16 69 21 0 12 -17 10 -145 -15z"/>
<path d="M2105 6329 c-11 -4 -16 -8 -11 -8 5 -1 3 -7 -3 -14 -13 -16 -7 -247
9 -342 5 -33 13 -274 17 -535 l8 -475 6 680 c3 374 3 685 0 691 -4 7 -14 8
-26 3z"/>
<path d="M6073 6275 c0 -38 2 -53 4 -32 2 20 2 52 0 70 -2 17 -4 1 -4 -38z"/>
<path d="M5753 6256 l-103 -21 0 -652 c0 -574 2 -653 15 -653 13 0 15 77 15
629 0 346 3 636 6 645 3 9 10 16 15 16 5 0 10 -278 12 -642 l2 -643 3 647 c2
606 3 647 20 652 9 2 43 10 75 17 32 7 60 16 63 21 7 11 -3 9 -123 -16z"/>
<path d="M2590 6242 c0 -5 46 -17 102 -26 56 -9 106 -22 110 -29 4 -7 8 -295
8 -642 1 -388 5 -621 10 -607 5 12 10 297 10 645 l1 622 -83 17 c-132 27 -158
30 -158 20z"/>
<path d="M5530 6210 c-19 -4 -60 -13 -90 -19 l-55 -11 3 -625 c2 -545 4 -625
17 -625 13 0 15 67 15 522 0 287 2 519 5 516 3 -3 8 -236 11 -519 3 -283 7
-516 10 -518 2 -2 5 57 5 132 1 76 3 155 4 177 1 22 3 242 4 489 l1 448 60 13
c33 7 60 17 60 21 0 10 -2 10 -50 -1z"/>
<path d="M2910 6182 c0 -5 34 -14 76 -20 42 -7 80 -15 85 -18 5 -3 9 -262 9
-610 0 -332 3 -604 8 -604 4 0 8 181 8 403 2 631 6 823 14 747 4 -36 8 -309 9
-607 1 -344 5 -544 11 -548 6 -4 11 208 12 607 2 337 2 615 1 617 -2 4 -200
41 -220 41 -7 0 -13 -4 -13 -8z"/>
<path d="M6073 6020 c0 -30 2 -43 4 -27 2 15 2 39 0 55 -2 15 -4 2 -4 -28z"/>
<path d="M5390 4833 c0 -4 -2 -285 -5 -624 l-5 -617 35 -4 c20 -2 39 0 42 5 3
5 30 6 59 2 l54 -6 0 191 0 192 -32 -8 c-18 -4 -44 -7 -58 -8 l-25 -1 0 440 0
440 -32 3 c-18 2 -33 0 -33 -5z m38 -693 c-2 -280 -7 -513 -11 -516 -4 -4 -7
141 -7 322 0 331 9 704 18 704 2 0 2 -229 0 -510z"/>
<path d="M5650 4196 l0 -644 33 -5 c17 -2 35 0 38 5 8 12 62 2 101 -18 15 -8
32 -14 38 -14 7 0 10 76 10 229 l0 228 -42 -8 c-24 -4 -58 -8 -75 -9 l-33 0 0
434 c0 338 3 435 13 439 6 3 -9 6 -35 6 l-48 1 0 -644z m56 17 c-5 -714 -3
-656 -16 -648 -6 4 -10 225 -10 631 0 543 2 624 15 624 13 0 14 -77 11 -607z"/>
<path d="M2722 4825 c3 -3 21 -6 40 -7 l35 -1 7 -75 c3 -41 6 -331 6 -644 0
-313 3 -567 8 -564 4 2 9 295 11 650 l3 646 -58 0 c-31 0 -55 -2 -52 -5z"/>
<path d="M3078 4418 c3 -404 0 -484 -18 -473 -4 3 -10 0 -12 -7 -3 -9 -13 -7
-34 7 -16 11 -32 19 -35 18 -4 -1 -21 2 -38 7 l-31 9 0 -206 0 -205 43 9 c23
4 75 7 115 6 l72 -2 0 624 0 625 -32 0 -33 0 3 -412z m29 325 c-2 -16 -4 -5
-4 22 0 28 2 40 4 28 2 -13 2 -35 0 -50z m0 -80 c-3 -10 -5 -2 -5 17 0 19 2
27 5 18 2 -10 2 -26 0 -35z m13 -554 c0 -339 -3 -519 -10 -519 -12 0 -14 208
-11 863 1 123 4 186 11 182 6 -4 10 -190 10 -526z"/>
<path d="M1738 4773 c7 -3 16 -2 19 1 4 3 -2 6 -13 5 -11 0 -14 -3 -6 -6z"/>
<path d="M1770 4768 c0 -5 18 -8 40 -8 l40 0 1 -152 c0 -84 0 -426 -1 -760 -1
-365 2 -608 8 -608 5 0 12 304 15 748 4 411 8 756 9 766 3 17 -4 20 -54 20
-32 1 -58 -2 -58 -6z"/>
<path d="M2060 4770 c-10 -7 3 -10 41 -10 l56 0 6 -67 c4 -38 7 -364 7 -725 0
-432 3 -658 10 -658 7 0 10 215 11 623 1 342 4 669 8 727 4 58 6 107 5 108 -6
9 -131 10 -144 2z"/>
<path d="M6292 4048 l3 -733 33 -3 c17 -2 32 1 32 6 0 6 17 8 41 5 l41 -6 -17
27 c-16 24 -17 62 -12 529 3 276 8 520 12 542 3 22 6 109 8 192 2 170 -5 156
75 155 17 0 32 4 32 9 0 5 -56 9 -125 9 l-125 0 2 -732z m58 -8 c0 -641 -1
-719 -15 -714 -8 4 -15 14 -15 23 -4 186 2 1295 7 1344 16 178 22 8 23 -653z"/>
<path d="M6641 4010 c4 -735 5 -770 22 -770 10 0 15 5 12 11 -8 13 -10 1507
-2 1515 3 3 10 3 15 0 6 -3 10 -289 11 -733 1 -400 4 -729 7 -732 2 -2 4 327
4 732 l0 736 43 4 c25 2 10 4 -37 5 l-78 2 3 -770z"/>
<path d="M6073 4715 c0 -33 2 -45 4 -27 2 18 2 45 0 60 -2 15 -4 0 -4 -33z"/>
<path d="M2105 4709 c-15 -34 -19 -62 -17 -124 2 -44 8 -82 14 -86 6 -4 8 -14
5 -23 -3 -8 -2 -18 3 -21 6 -4 11 -75 12 -158 2 -126 3 -111 8 92 3 134 3 271
0 304 l-5 60 -20 -44z"/>
<path d="M2772 4730 c0 -14 2 -19 5 -12 2 6 2 18 0 25 -3 6 -5 1 -5 -13z"/>
<path d="M6071 4584 c0 -11 3 -14 6 -6 3 7 2 16 -1 19 -3 4 -6 -2 -5 -13z"/>
<path d="M2588 3764 c-2 -116 0 -224 3 -240 4 -16 7 -24 8 -18 0 6 41 19 90
29 l90 17 -2 68 c-1 38 -4 67 -7 65 -3 -2 -6 27 -7 63 -1 42 3 70 10 74 9 5 8
11 -2 20 -12 11 -13 10 -6 -2 7 -12 5 -13 -6 -2 -10 9 -11 17 -3 30 16 26 5
81 -19 94 -11 6 -49 11 -83 12 l-63 1 -3 -211z"/>
<path d="M4996 3961 c-9 -14 -57 -15 -878 -14 l-788 1 0 -304 0 -304 -22 -5
c-335 -76 -812 -167 -860 -163 l-48 3 0 -42 0 -42 1840 -1 1840 0 0 41 c0 41
0 41 -32 36 -20 -3 -124 16 -263 48 -126 29 -288 65 -360 80 -71 15 -147 31
-169 37 l-38 9 3 310 c3 203 1 308 -6 305 -5 -2 -20 0 -32 5 -15 5 -35 2 -63
-12 l-41 -20 -35 20 c-40 24 -41 24 -48 12z"/>
<path d="M2122 3695 c0 -16 2 -22 5 -12 2 9 2 23 0 30 -3 6 -5 -1 -5 -18z"/>
<path d="M2122 3500 c0 -14 2 -19 5 -12 2 6 2 18 0 25 -3 6 -5 1 -5 -13z"/>
<path d="M6378 3303 c7 -3 16 -2 19 1 4 3 -2 6 -13 5 -11 0 -14 -3 -6 -6z"/>
<path d="M6062 3250 c0 -19 2 -27 5 -17 2 9 2 25 0 35 -3 9 -5 1 -5 -18z"/>
<path d="M2205 2980 c-12 -5 1 -6 35 -3 30 3 57 7 59 9 9 8 -75 2 -94 -6z"/>
<path d="M1409 2161 c8 -5 84 -8 170 -6 111 3 158 0 163 -8 5 -9 10 -9 20 1
14 14 58 16 58 3 0 -9 90 -4 99 5 2 2 11 -1 18 -8 10 -8 17 -8 21 -1 4 6 16
13 27 16 11 2 -117 5 -285 6 -181 0 -299 -3 -291 -8z"/>
<path d="M2073 2163 c37 -2 97 -2 135 0 37 2 6 3 -68 3 -74 0 -105 -1 -67 -3z"/>
<path d="M2323 2163 c26 -2 68 -2 95 0 26 2 4 3 -48 3 -52 0 -74 -1 -47 -3z"/>
<path d="M2578 2163 c12 -2 30 -2 40 0 9 3 -1 5 -23 4 -22 0 -30 -2 -17 -4z"/>
<path d="M2678 2163 c7 -3 16 -2 19 1 4 3 -2 6 -13 5 -11 0 -14 -3 -6 -6z"/>
<path d="M2722 2164 c7 -7 169 -7 176 1 3 3 -37 5 -88 5 -51 0 -91 -3 -88 -6z"/>
<path d="M2923 2163 c9 -2 23 -2 30 0 6 3 -1 5 -18 5 -16 0 -22 -2 -12 -5z"/>
<path d="M3008 2163 c7 -3 16 -2 19 1 4 3 -2 6 -13 5 -11 0 -14 -3 -6 -6z"/>
<path d="M3058 2163 c12 -2 30 -2 40 0 9 3 -1 5 -23 4 -22 0 -30 -2 -17 -4z"/>
<path d="M3168 2163 c7 -3 16 -2 19 1 4 3 -2 6 -13 5 -11 0 -14 -3 -6 -6z"/>
<path d="M3218 2163 c7 -3 16 -2 19 1 4 3 -2 6 -13 5 -11 0 -14 -3 -6 -6z"/>
<path d="M3318 2163 c7 -3 16 -2 19 1 4 3 -2 6 -13 5 -11 0 -14 -3 -6 -6z"/>
<path d="M3358 2163 c7 -3 16 -2 19 1 4 3 -2 6 -13 5 -11 0 -14 -3 -6 -6z"/>
<path d="M3398 2163 c6 -2 18 -2 25 0 6 3 1 5 -13 5 -14 0 -19 -2 -12 -5z"/>
<path d="M3448 2163 c7 -3 16 -2 19 1 4 3 -2 6 -13 5 -11 0 -14 -3 -6 -6z"/>
<path d="M3683 2163 c26 -2 67 -2 90 0 23 2 2 3 -48 3 -49 0 -68 -1 -42 -3z"/>
<path d="M3868 2163 c18 -2 45 -2 60 0 15 2 0 4 -33 4 -33 0 -45 -2 -27 -4z"/>
<path d="M3983 2163 c15 -2 37 -2 50 0 12 2 0 4 -28 4 -27 0 -38 -2 -22 -4z"/>
<path d="M4132 2165 c7 -7 249 -8 256 -1 3 3 -55 6 -128 6 -73 0 -131 -2 -128
-5z"/>
<path d="M4402 2165 c3 -3 134 -5 291 -5 178 -1 288 -4 292 -10 4 -6 11 -7 18
-3 18 11 141 10 149 -1 5 -7 11 -7 20 2 17 17 26 15 31 -5 4 -17 5 -17 6 0 0
9 6 17 12 17 5 0 8 -4 4 -9 -9 -15 11 -22 37 -12 13 5 33 5 46 0 12 -5 30 -5
39 -2 15 6 14 7 -3 14 -12 5 -5 7 21 6 22 -1 43 -6 46 -10 4 -5 51 -11 105
-13 55 -3 118 -6 141 -8 28 -2 40 0 36 7 -4 7 1 8 13 3 10 -4 71 -9 134 -11
115 -4 240 -11 341 -20 35 -2 56 0 61 8 4 7 8 8 8 2 0 -10 152 -11 268 -2 23
2 42 -1 42 -5 0 -5 5 -6 11 -2 16 9 229 11 229 1 0 -5 5 -5 11 -1 7 4 73 7
148 7 124 1 137 2 152 21 14 17 19 18 32 8 13 -11 19 -11 36 0 12 7 21 16 21
20 0 5 -631 8 -1402 8 -771 0 -1399 -2 -1396 -5z"/>
</g>
</svg>
