<?xml version="1.0" standalone="no"?>
<!DOCTYPE svg PUBLIC "-//W3C//DTD SVG 20010904//EN"
 "http://www.w3.org/TR/2001/REC-SVG-20010904/DTD/svg10.dtd">
<svg version="1.0" xmlns="http://www.w3.org/2000/svg"
 width="626.000000pt" height="626.000000pt" viewBox="0 0 626.000000 626.000000"
 preserveAspectRatio="xMidYMid meet">

<g transform="translate(0.000000,626.000000) scale(0.100000,-0.100000)"
fill="#000000" stroke="none">
<path d="M1990 4084 c-36 -37 -58 -63 -50 -59 8 4 0 -8 -19 -28 -19 -20 -39
-33 -44 -30 -6 3 -7 1 -3 -6 6 -9 11 -9 24 1 14 12 14 10 2 -12 -7 -14 -22
-36 -34 -49 -21 -24 -21 -24 18 2 31 20 43 24 58 16 15 -8 23 -7 32 7 7 9 19
15 27 12 11 -4 14 6 15 41 1 25 -3 49 -9 53 -7 4 -7 11 2 22 9 11 10 16 2 16
-6 0 -11 5 -11 11 0 5 4 8 9 5 5 -3 17 2 28 12 10 9 14 14 9 10 -23 -18 -27
-6 -6 17 13 14 21 25 19 25 -3 0 -34 -30 -69 -66z"/>
<path d="M2044 4059 c-19 -22 -19 -22 3 -10 24 12 39 31 25 31 -5 0 -17 -10
-28 -21z"/>
<path d="M1543 3981 c20 -25 37 -49 37 -54 0 -6 -26 -7 -65 -4 -43 4 -65 3
-65 -4 0 -9 28 -76 36 -88 6 -8 114 54 114 66 0 7 5 13 11 13 5 0 7 -4 4 -10
-3 -6 1 -7 10 -4 8 4 26 -1 40 -10 53 -35 33 -13 -47 51 -116 93 -117 93 -75
44z"/>
<path d="M1839 3943 c-13 -16 -12 -17 4 -4 9 7 17 15 17 17 0 8 -8 3 -21 -13z"/>
<path d="M1160 3416 c0 -8 71 -48 76 -43 3 2 -13 14 -36 26 -22 11 -40 19 -40
17z"/>
<path d="M3192 3129 c-19 -17 -31 -33 -28 -36 3 -4 7 -4 9 -2 1 2 15 19 31 37
37 40 31 41 -12 1z"/>
<path d="M3380 3005 c-25 -19 -54 -35 -65 -35 -18 0 -18 -1 -2 -17 16 -17 20
-15 70 35 60 60 60 64 -3 17z"/>
<path d="M2844 3004 c5 -37 208 -249 345 -363 46 -37 51 -59 20 -87 -39 -36
-43 -53 -15 -75 30 -24 33 -45 9 -79 l-17 -25 25 20 c27 23 43 40 66 73 13 19
13 27 3 52 -10 24 -15 28 -26 19 -17 -14 -18 -33 -1 -23 6 4 9 4 5 -1 -4 -4
-3 -16 3 -26 12 -24 -7 -26 -32 -3 -17 15 -15 20 44 97 34 45 94 115 132 156
39 41 61 71 51 68 -11 -5 -30 -1 -45 8 l-26 16 24 -20 c26 -23 27 -21 -36 -90
-18 -20 -33 -33 -33 -28 0 4 -13 1 -28 -7 -32 -16 -98 -7 -117 16 -5 7 -48 47
-95 88 -47 41 -120 109 -163 152 -79 79 -97 91 -93 62z m237 -231 c13 -16 12
-17 -3 -4 -17 13 -22 21 -14 21 2 0 10 -8 17 -17z"/>
<path d="M3410 2986 c-25 -18 -51 -40 -58 -48 -20 -25 5 -34 30 -11 21 19 82
93 76 93 -1 0 -23 -15 -48 -34z"/>
<path d="M3300 2936 c0 -2 8 -10 18 -17 15 -13 16 -12 3 4 -13 16 -21 21 -21
13z"/>
<path d="M2910 2859 c0 -5 -4 -8 -9 -5 -4 3 -19 -6 -31 -19 -26 -28 -68 -33
-76 -10 -4 8 -18 15 -34 15 -54 0 -81 -22 -39 -33 16 -4 18 -3 8 9 -9 11 -8
14 2 14 15 -1 59 -31 131 -90 l43 -35 -26 36 -27 35 43 39 c40 37 48 55 24 55
-5 0 -9 -5 -9 -11z"/>
<path d="M2990 2802 c0 -5 9 -19 20 -32 26 -30 25 -32 -10 -70 -25 -26 -32
-30 -50 -20 -11 6 -20 15 -20 20 0 6 -5 10 -12 10 -7 0 -6 -6 3 -17 8 -10 20
-29 27 -43 7 -14 31 -45 53 -69 22 -24 38 -46 35 -49 -3 -2 -11 0 -19 6 -17
15 -44 -25 -28 -41 10 -10 16 1 12 25 0 4 6 5 14 2 8 -4 13 -9 11 -13 -2 -3 2
-15 10 -26 11 -15 14 -15 14 -3 0 8 10 19 21 24 21 10 21 10 -5 41 -35 41 -33
54 13 96 l39 35 -64 66 c-35 37 -64 63 -64 58z m70 -282 c0 -5 -4 -10 -10 -10
-5 0 -10 5 -10 10 0 6 5 10 10 10 6 0 10 -4 10 -10z"/>
<path d="M2535 2579 c-11 -16 -1 -19 13 -3 7 8 8 14 3 14 -5 0 -13 -5 -16 -11z"/>
<path d="M3466 2347 c3 -10 9 -15 12 -12 3 3 0 11 -7 18 -10 9 -11 8 -5 -6z"/>
<path d="M2773 2320 c-6 -16 -10 -30 -7 -30 2 0 10 14 19 30 9 17 12 30 7 30
-4 0 -13 -13 -19 -30z"/>
<path d="M4020 2026 c0 -2 8 -10 18 -17 15 -13 16 -12 3 4 -13 16 -21 21 -21
13z"/>
<path d="M4060 1987 c0 -1 35 -36 78 -77 l77 -75 -75 78 c-69 71 -80 82 -80
74z"/>
<path d="M4220 1827 c0 -2 15 -16 33 -33 l32 -29 -29 33 c-28 30 -36 37 -36
29z"/>
<path d="M4330 1715 c13 -14 26 -25 28 -25 3 0 -5 11 -18 25 -13 14 -26 25
-28 25 -3 0 5 -11 18 -25z"/>
<path d="M1909 1693 c-13 -16 -12 -17 4 -4 9 7 17 15 17 17 0 8 -8 3 -21 -13z"/>
<path d="M1839 1623 c-13 -16 -12 -17 4 -4 16 13 21 21 13 21 -2 0 -10 -8 -17
-17z"/>
<path d="M4090 1426 c0 -2 8 -10 18 -17 15 -13 16 -12 3 4 -13 16 -21 21 -21
13z"/>
<path d="M4235 1350 c21 -22 41 -40 44 -40 3 0 -13 18 -34 40 -21 22 -41 40
-44 40 -3 0 13 -18 34 -40z"/>
<path d="M2024 1318 l-29 -33 30 25 c17 14 34 28 40 32 5 5 5 8 -1 8 -6 0 -23
-15 -40 -32z"/>
<path d="M4216 1331 c-3 -5 2 -15 12 -22 15 -12 16 -12 5 2 -7 9 -10 19 -6 22
3 4 4 7 0 7 -3 0 -8 -4 -11 -9z"/>
<path d="M4305 1290 c10 -11 20 -20 23 -20 3 0 -3 9 -13 20 -10 11 -20 20 -23
20 -3 0 3 -9 13 -20z"/>
<path d="M1950 1265 c-18 -13 -38 -22 -43 -18 -6 4 -7 1 -2 -7 5 -8 3 -11 -6
-8 -14 6 -78 -35 -92 -59 -5 -7 -12 -11 -18 -8 -5 4 -9 1 -9 -5 0 -6 -5 -8
-10 -5 -6 3 -13 -1 -16 -9 -3 -9 -10 -13 -15 -10 -5 3 -9 0 -9 -7 0 -7 -3 -10
-6 -7 -3 4 -43 -15 -88 -42 -46 -26 -100 -53 -120 -60 -42 -14 -48 -23 -8 -14
71 17 409 210 472 270 23 22 7 16 -30 -11z"/>
<path d="M4290 1266 c0 -2 8 -10 18 -17 15 -13 16 -12 3 4 -13 16 -21 21 -21
13z"/>
<path d="M4410 1182 c45 -38 97 -63 97 -48 0 8 -6 12 -15 8 -10 -3 -13 -1 -9
6 4 6 -7 21 -25 33 -22 15 -28 17 -19 6 17 -21 8 -22 -27 -1 l-27 16 25 -20z
m65 -22 c3 -5 2 -10 -4 -10 -5 0 -13 5 -16 10 -3 6 -2 10 4 10 5 0 13 -4 16
-10z"/>
<path d="M4524 1123 c3 -18 171 -108 221 -117 17 -3 23 -3 15 0 -66 28 -126
59 -132 68 -5 7 -8 7 -8 1 0 -5 -5 -3 -10 5 -5 8 -15 15 -22 16 -34 3 -39 5
-33 13 3 6 -3 15 -14 20 -16 9 -19 8 -17 -6z"/>
<path d="M4818 993 c6 -2 18 -2 25 0 6 3 1 5 -13 5 -14 0 -19 -2 -12 -5z"/>
</g>
</svg>
